<?xml version="1.0" encoding="UTF-8" standalone="no"?>
<!DOCTYPE svg PUBLIC "-//W3C//DTD SVG 1.1//EN" "http://www.w3.org/Graphics/SVG/1.1/DTD/svg11.dtd" >
<svg xmlns="http://www.w3.org/2000/svg">
<metadata>
This is a SVG font generated by e-font.
</metadata>
<defs>
<font id="lineto-circular-medium" horiz-adv-x="556" >
<font-face units-per-em="1000" ascent="997" descent="-268" />
<missing-glyph horiz-adv-x="556" />
<glyph unicode="&#x20;" horiz-adv-x="248" />
<glyph unicode="&#x21;" horiz-adv-x="324" d="M204 210L120 210L91 709L232 709L204 210ZM89 66C89 86 96 103 110 118C124 133 141 140 161 140C182 140 199 133 214 118C228 103 235 86 235 66C235 46 228 29 214 15C199 0 182 -7 161 -7C141 -7 124 0 110 15C96 29 89 46 89 66Z"/>
<glyph unicode="&#x22;" horiz-adv-x="390" d="M37 591C37 611 43 628 56 641C69 654 85 660 105 660C125 660 141 654 154 641C167 628 173 611 173 591C173 588 173 584 173 580C172 575 171 571 170 568L125 383L84 383L40 568C39 571 39 574 38 579C37 584 37 588 37 591ZM217 591C217 611 223 628 236 641C249 654 265 660 285 660C305 660 321 654 334 641C347 628 353 611 353 591C353 588 353 584 353 580C352 575 351 571 350 568L305 383L264 383L220 568C219 571 219 574 218 579C217 584 217 588 217 591Z"/>
<glyph unicode="&#x23;" horiz-adv-x="740" d="M94 487L238 487L273 648L368 648L333 487L469 487L504 648L600 648L565 487L695 487L695 400L546 400L514 251L646 251L646 164L496 164L461 0L365 0L400 164L264 164L229 0L134 0L169 164L45 164L45 251L187 251L219 400L94 400L94 487ZM282 251L418 251L450 400L314 400L282 251Z"/>
<glyph unicode="&#x24;" horiz-adv-x="595" d="M262 -117L262 -12C227 -8 197 1 171 15C145 28 123 44 106 63C88 82 74 102 65 125C55 147 49 169 47 190L159 221C162 192 171 166 188 141C204 116 229 100 262 92L262 276L244 280C191 292 149 313 118 344C87 375 72 415 72 464C72 489 77 512 86 534C95 556 109 576 126 594C143 611 163 626 186 637C209 648 235 656 262 660L262 766L354 766L354 659C383 654 409 646 430 634C451 622 469 608 484 593C499 578 510 561 519 544C527 526 533 509 536 492L428 458C427 465 425 474 422 483C419 492 414 501 408 510C402 519 395 527 386 535C377 542 367 548 354 553L354 374L363 372C423 359 468 335 498 301C528 266 543 227 543 182C543 159 539 137 531 116C523 95 511 75 495 58C479 41 459 26 436 14C412 1 385 -7 354 -11L354 -117L262 -117ZM189 471C189 453 195 437 207 423C218 408 237 398 262 393L262 557C238 551 220 540 208 524C195 508 189 490 189 471ZM427 176C427 194 421 210 410 224C398 238 379 249 354 256L354 92C379 97 398 108 410 124C421 139 427 157 427 176Z"/>
<glyph unicode="&#x25;" horiz-adv-x="837" d="M142 496C142 475 149 457 163 443C176 429 193 422 213 422C233 422 250 429 263 443C276 457 283 475 283 496C283 517 276 535 263 549C250 562 233 569 213 569C193 569 176 562 163 549C149 535 142 517 142 496ZM49 496C49 519 53 540 62 559C71 578 83 595 98 610C113 625 130 636 150 645C170 653 191 657 213 657C235 657 256 653 276 645C295 636 313 625 328 610C343 595 355 578 364 559C373 540 377 519 377 496C377 473 373 452 364 433C355 413 343 396 328 382C313 367 295 356 275 348C255 340 234 336 212 336C190 336 169 340 150 349C130 357 113 368 98 383C83 397 71 414 62 433C53 452 49 473 49 496ZM560 151C560 130 567 112 581 98C594 84 611 77 631 77C651 77 668 84 681 98C694 112 701 130 701 151C701 172 694 190 681 204C668 217 651 224 631 224C611 224 594 217 581 204C567 190 560 172 560 151ZM467 151C467 174 471 195 480 214C489 233 501 250 516 265C531 280 548 291 568 300C588 308 609 312 631 312C653 312 674 308 694 300C713 291 731 280 746 265C761 250 773 233 782 214C791 195 795 174 795 151C795 128 791 107 782 88C773 68 761 51 746 37C731 22 713 11 693 3C673 -5 652 -9 630 -9C608 -9 587 -5 568 4C548 12 531 23 516 38C501 52 489 69 480 88C471 107 467 128 467 151ZM139 0L601 648L705 648L244 0L139 0Z"/>
<glyph unicode="&#x26;" horiz-adv-x="708" d="M473 84C445 54 415 30 384 13C353 -4 318 -13 279 -13C245 -13 215 -8 189 3C162 14 140 28 122 45C104 62 91 82 82 105C73 127 68 150 68 173C68 196 71 216 77 234C83 252 91 269 102 285C113 300 126 315 141 328C156 341 172 355 191 369L198 374L186 387C177 396 168 406 159 417C150 428 141 441 133 454C125 467 118 481 113 496C108 511 105 526 105 543C105 572 111 598 122 621C133 643 147 662 165 677C183 692 203 704 226 712C249 720 272 724 295 724C323 724 349 720 373 712C396 703 417 691 434 676C451 661 465 642 475 621C484 599 489 575 489 548C489 531 486 514 481 499C475 484 467 469 458 456C449 443 438 430 426 419C414 408 402 397 389 388L358 365L476 242L645 424L645 274L548 167L708 0L553 0L473 84ZM281 92C304 92 325 98 344 111C363 124 381 140 399 159L400 160L269 299L245 281C228 268 214 254 203 239C192 224 187 204 187 181C187 170 189 159 194 149C198 138 204 129 212 120C220 111 230 105 242 100C253 95 266 92 281 92ZM219 550C219 533 224 517 233 503C242 488 253 474 266 461L286 439L327 469C346 483 358 497 365 510C372 523 375 537 375 550C375 571 368 589 353 604C338 619 319 626 296 626C287 626 278 625 269 622C260 619 251 614 244 608C237 601 231 593 226 584C221 574 219 563 219 550Z"/>
<glyph unicode="&#x27;" horiz-adv-x="210" d="M37 591C37 611 43 628 56 641C69 654 85 660 105 660C125 660 141 654 154 641C167 628 173 611 173 591C173 588 173 584 173 580C172 575 171 571 170 568L125 383L84 383L40 568C39 571 39 574 38 579C37 584 37 588 37 591Z"/>
<glyph unicode="&#x28;" horiz-adv-x="317" d="M48 320C48 376 53 428 64 475C74 522 88 566 107 606C125 646 146 683 171 716C195 749 221 780 249 808L317 746C265 689 224 626 193 557C162 488 146 409 146 320C146 231 162 151 193 82C224 13 265 -50 317 -107L249 -168C221 -140 195 -109 171 -76C146 -43 125 -6 107 34C88 74 74 118 64 165C53 212 48 264 48 320Z"/>
<glyph unicode="&#x29;" horiz-adv-x="317" d="M269 320C269 264 264 212 254 165C243 118 229 74 211 34C193 -6 172 -43 147 -76C122 -109 96 -140 68 -168L0 -107C53 -50 94 13 125 82C156 151 171 231 171 320C171 409 156 488 125 557C94 626 53 689 0 746L68 808C96 780 122 749 147 716C172 683 193 646 211 606C229 566 243 522 254 475C264 428 269 376 269 320Z"/>
<glyph unicode="&#x2a;" horiz-adv-x="448" d="M271 579L390 619L419 533L298 493L376 391L303 337L223 442L148 338L74 392L150 493L29 533L58 619L177 578L177 709L271 709L271 579Z"/>
<glyph unicode="&#x2b;" horiz-adv-x="579" d="M240 339L240 534L339 534L339 339L527 339L527 244L339 244L339 47L240 47L240 244L52 244L52 339L240 339Z"/>
<glyph unicode="&#x2c;" horiz-adv-x="304" d="M65 73C65 94 73 112 89 127C105 142 125 149 148 149C175 149 197 139 214 120C231 101 239 75 239 43C239 8 234 -23 223 -48C212 -73 199 -93 183 -110C167 -127 149 -140 130 -149C111 -158 93 -163 76 -165L76 -106C87 -103 98 -99 109 -92C120 -85 129 -77 138 -68C146 -58 153 -47 158 -36C163 -24 165 -11 165 2C163 1 160 -1 157 -2C153 -3 148 -3 141 -3C119 -3 101 4 87 18C72 31 65 50 65 73Z"/>
<glyph unicode="&#x2d;" horiz-adv-x="372" d="M45 241L45 344L327 344L327 241L45 241Z"/>
<glyph unicode="&#x2e;" horiz-adv-x="296" d="M67 75C67 98 75 117 91 133C106 149 125 157 148 157C171 157 190 149 206 133C222 117 230 98 230 75C230 52 222 33 206 18C190 2 171 -6 148 -6C125 -6 106 2 91 18C75 33 67 52 67 75Z"/>
<glyph unicode="&#x2f;" horiz-adv-x="456" d="M107 -5L0 -5L349 714L456 714L107 -5Z"/>
<glyph unicode="&#x30;" horiz-adv-x="619" d="M164 324C164 283 168 247 176 216C183 185 195 159 210 139C221 124 235 113 251 104C267 95 287 91 310 91C333 91 353 95 369 104C385 113 399 124 410 139C425 159 437 185 444 216C451 247 455 283 455 324C455 365 451 402 444 433C437 464 425 489 410 509C399 524 385 535 369 544C353 553 333 557 310 557C287 557 267 553 251 544C235 535 221 524 210 509C194 489 182 464 175 433C168 402 164 365 164 324ZM45 324C45 367 49 409 58 448C66 487 81 524 103 557C124 589 152 615 186 634C220 653 261 663 310 663C359 663 400 653 434 634C467 615 495 589 516 557C538 524 553 487 562 448C570 409 574 367 574 324C574 281 570 239 562 200C553 161 538 124 516 91C495 59 467 33 434 14C400 -5 359 -15 310 -15C261 -15 220 -5 186 14C152 33 124 59 103 91C81 124 66 161 58 200C49 239 45 281 45 324Z"/>
<glyph unicode="&#x31;" horiz-adv-x="376" d="M185 0L185 444L28 444L28 526C75 527 113 540 143 563C173 586 192 614 199 648L303 648L303 0L185 0Z"/>
<glyph unicode="&#x32;" horiz-adv-x="537" d="M42 413C41 418 41 423 40 430C39 437 39 443 39 450C39 478 44 505 55 531C65 556 80 579 100 599C119 618 143 634 172 646C201 657 233 663 270 663C306 663 338 658 366 647C394 636 418 621 438 603C457 584 472 563 483 538C493 513 498 487 498 459C498 417 487 379 465 345C443 311 412 282 373 258L247 180C232 171 218 160 206 148C194 136 186 122 181 106L502 106L502 0L33 0C34 28 37 54 42 79C47 104 56 127 68 150C80 172 96 193 116 213C135 232 159 251 187 268L294 335C323 353 345 372 358 392C371 412 377 434 377 457C377 470 375 483 370 495C365 507 359 518 350 527C341 536 329 544 316 550C302 555 286 558 268 558C230 558 202 547 183 524C164 501 155 472 155 438C155 433 155 427 156 422C157 416 157 410 158 405L42 413Z"/>
<glyph unicode="&#x33;" horiz-adv-x="551" d="M164 383L343 543L48 543L48 648L498 648L498 548L322 394C346 393 370 389 393 380C416 371 437 359 456 342C474 325 489 305 500 281C511 256 516 228 516 197C516 169 511 142 500 117C489 92 473 69 452 50C431 30 406 14 376 3C346 -9 312 -15 273 -15C236 -15 202 -9 173 2C143 13 118 28 97 47C76 66 59 87 47 112C35 137 28 163 26 190L143 214C144 195 147 178 154 163C161 147 170 134 182 123C193 112 207 103 222 97C237 91 254 88 272 88C292 88 310 91 325 97C340 103 352 111 363 121C374 131 382 143 387 156C392 169 395 183 395 198C395 217 392 233 385 247C378 260 370 271 359 280C348 289 335 295 322 299C308 303 294 305 280 305C265 305 252 304 242 302C232 299 224 297 219 294L164 383Z"/>
<glyph unicode="&#x34;" horiz-adv-x="587" d="M33 272L309 648L463 648L463 248L572 248L572 142L463 142L463 0L345 0L345 142L33 142L33 272ZM345 527L141 248L345 248L345 527Z"/>
<glyph unicode="&#x35;" horiz-adv-x="551" d="M145 208C148 173 161 145 184 122C207 99 238 87 276 87C293 87 309 90 324 96C339 101 352 109 363 119C374 129 383 141 390 156C396 171 399 187 399 205C399 225 396 243 389 258C382 273 372 285 361 295C350 305 337 313 322 318C307 323 291 325 274 325C251 325 230 321 211 313C192 304 177 293 166 280L53 321L133 648L488 648L488 543L214 543L174 379C188 394 206 405 229 413C252 420 275 424 298 424C330 424 360 419 387 410C414 400 438 386 458 367C477 348 493 326 504 299C515 272 520 242 520 208C520 177 514 149 503 122C492 95 476 71 455 51C434 30 408 14 378 2C347 -10 313 -16 276 -16C241 -16 209 -11 180 0C151 11 126 25 105 43C84 61 67 82 54 106C41 129 34 154 32 179L145 208Z"/>
<glyph unicode="&#x36;" horiz-adv-x="581" d="M498 533C486 540 471 546 454 551C436 556 414 559 387 559C356 559 328 554 303 545C277 535 254 521 235 503C216 485 200 463 188 438C176 412 169 383 166 352C183 378 207 397 236 410C265 423 296 429 331 429C363 429 393 424 420 414C447 403 470 389 490 370C509 351 524 328 535 301C546 274 551 243 551 210C551 176 545 145 532 118C519 90 501 66 479 47C457 27 431 12 401 1C371 -10 339 -15 305 -15C264 -15 227 -7 195 9C163 24 136 46 114 73C92 100 75 132 64 169C52 206 46 245 46 286C46 345 55 397 72 444C89 491 114 530 145 563C176 595 212 620 255 637C298 654 344 663 394 663C424 663 451 660 475 654C499 648 518 640 532 631L498 533ZM179 208C179 189 183 173 190 158C197 143 206 130 218 120C229 109 243 101 258 96C273 90 288 87 305 87C322 87 338 90 353 96C368 101 382 109 394 120C405 130 414 143 421 158C428 173 431 189 431 208C431 227 428 244 421 259C414 274 405 286 394 297C382 308 368 316 353 321C338 326 322 329 305 329C288 329 272 326 257 321C242 316 228 308 217 297C205 286 196 274 189 259C182 244 179 227 179 208Z"/>
<glyph unicode="&#x37;" horiz-adv-x="494" d="M489 543C480 536 468 525 453 511C438 496 421 478 403 457C384 435 366 409 347 380C328 351 310 317 293 280C276 242 262 200 249 153C236 106 228 55 223 0L99 0C102 45 109 88 118 127C127 166 137 203 150 237C163 271 176 302 191 331C206 359 221 384 236 407C271 460 310 505 353 543L5 543L5 648L489 648L489 543Z"/>
<glyph unicode="&#x38;" horiz-adv-x="565" d="M282 378C315 379 341 388 360 406C379 423 389 446 389 473C389 498 380 519 361 538C342 556 315 565 282 565C249 565 223 556 204 538C185 519 176 498 176 473C176 446 186 423 205 406C224 388 250 379 282 378ZM282 86C322 86 352 96 373 116C394 135 404 158 404 185C404 212 394 235 373 255C352 275 322 285 282 285C243 285 213 275 192 255C171 235 161 212 161 185C161 158 171 135 192 116C213 96 243 86 282 86ZM282 -15C245 -15 211 -10 182 -1C153 8 128 22 107 39C86 56 70 75 59 98C48 121 42 146 42 173C42 210 53 243 76 272C99 300 127 320 162 332C131 343 105 363 86 391C67 418 57 448 57 480C57 507 63 531 74 554C85 577 101 596 121 612C141 628 165 641 192 650C219 659 249 663 282 663C315 663 345 659 373 650C400 641 424 628 444 612C464 596 480 577 491 554C502 531 508 507 508 480C508 464 506 449 501 434C496 419 488 404 479 391C470 378 459 366 446 356C433 346 418 338 403 332C420 326 435 318 450 308C465 297 478 285 489 272C500 258 508 243 514 226C520 209 523 192 523 173C523 146 518 121 507 98C496 75 480 56 459 39C438 22 412 8 383 -1C353 -10 319 -15 282 -15Z"/>
<glyph unicode="&#x39;" horiz-adv-x="582" d="M88 120C101 112 118 105 140 99C161 93 183 90 204 90C238 90 268 95 294 105C320 114 342 128 360 146C378 164 392 186 402 211C412 236 418 263 419 294C407 273 387 255 360 241C333 226 300 219 261 219C232 219 204 224 177 234C150 243 126 257 105 276C84 295 68 318 56 345C43 372 37 402 37 437C37 470 43 501 56 529C69 556 86 580 108 600C130 620 156 636 186 647C215 658 247 663 281 663C315 663 347 657 378 645C409 633 436 615 460 590C483 565 502 533 516 495C530 457 537 412 537 360C537 301 530 249 516 203C502 156 481 117 454 85C426 52 391 28 350 11C308 -7 260 -15 205 -15C178 -15 151 -12 123 -5C94 2 72 11 55 22L88 120ZM403 441C403 459 400 475 393 490C386 505 377 517 366 528C354 539 341 547 326 553C311 558 295 561 279 561C262 561 247 558 232 553C217 547 203 539 192 529C181 518 172 506 165 491C158 476 155 459 155 441C155 422 158 405 165 390C172 375 181 363 192 352C203 341 217 333 232 328C247 323 262 320 279 320C295 320 311 323 326 329C341 334 354 342 366 353C377 363 386 376 393 391C400 406 403 422 403 441Z"/>
<glyph unicode="&#x3a;" horiz-adv-x="302" d="M71 74C71 97 79 116 95 132C110 147 129 155 152 155C174 155 193 147 209 132C225 116 233 97 233 74C233 52 225 33 209 18C193 2 174 -6 152 -6C129 -6 110 2 95 18C79 33 71 52 71 74ZM70 412C70 435 78 454 94 470C109 485 128 493 151 493C173 493 192 485 208 470C224 454 232 435 232 412C232 390 224 371 208 356C192 340 173 332 151 332C128 332 109 340 94 356C78 371 70 390 70 412Z"/>
<glyph unicode="&#x3b;" horiz-adv-x="307" d="M71 69C71 90 79 107 94 121C109 135 127 142 150 142C175 142 196 133 212 114C228 95 236 71 236 41C236 8 231 -21 221 -45C211 -69 198 -89 183 -105C168 -120 151 -132 133 -141C114 -150 97 -155 81 -157L81 -101C92 -98 102 -94 113 -88C123 -81 132 -73 140 -64C147 -55 154 -45 159 -34C164 -23 166 -11 166 2C164 1 161 -1 158 -2C154 -3 149 -3 143 -3C122 -3 105 4 92 17C78 30 71 47 71 69ZM70 412C70 435 78 454 94 470C109 485 128 493 151 493C173 493 192 485 208 470C224 454 232 435 232 412C232 390 224 371 208 356C192 340 173 332 151 332C128 332 109 340 94 356C78 371 70 390 70 412Z"/>
<glyph unicode="&#x3c;" horiz-adv-x="490" d="M35 338L457 550L457 439L155 292L457 144L457 33L35 244L35 338Z"/>
<glyph unicode="&#x3d;" horiz-adv-x="598" d="M62 343L62 437L537 437L537 343L62 343ZM62 146L62 241L537 241L537 146L62 146Z"/>
<glyph unicode="&#x3e;" horiz-adv-x="490" d="M455 244L33 33L33 143L337 291L33 438L33 550L455 338L455 244Z"/>
<glyph unicode="&#x3f;" horiz-adv-x="520" d="M195 210C194 217 194 223 194 229C193 234 193 241 193 248C193 278 199 305 212 330C224 355 245 378 274 399L320 432C337 444 349 457 356 472C363 486 367 502 367 519C367 532 365 544 361 557C356 569 350 580 341 589C332 598 320 606 307 612C293 617 277 620 259 620C240 620 224 617 210 610C196 603 184 595 175 584C165 573 158 561 153 548C148 534 146 520 146 506C146 499 147 491 148 482C149 473 150 466 152 461L39 469C35 483 33 498 33 515C33 540 38 565 47 590C56 615 71 637 90 657C109 677 132 693 160 706C188 718 221 724 259 724C296 724 328 718 357 707C386 696 410 681 429 662C448 643 462 622 472 598C482 574 487 549 487 524C487 484 478 450 459 422C440 393 416 369 387 348L344 318C311 295 294 263 294 223C294 222 294 220 294 218C294 216 294 213 295 210L195 210ZM173 66C173 86 180 103 194 118C208 133 225 140 246 140C266 140 283 133 298 118C312 103 319 86 319 66C319 46 312 29 298 15C283 0 266 -7 246 -7C225 -7 208 0 194 15C180 29 173 46 173 66Z"/>
<glyph unicode="&#x40;" horiz-adv-x="826" d="M594 138C569 138 547 144 530 155C513 166 501 181 496 200C483 179 465 163 444 152C423 141 401 136 379 136C357 136 337 140 318 149C299 157 283 169 270 184C257 199 246 217 239 238C231 259 227 283 227 308C227 341 232 371 243 399C254 427 268 451 286 472C304 493 325 509 349 520C373 531 398 537 425 537C445 537 465 532 485 522C505 512 519 497 526 476L535 524L623 524L570 276C569 273 569 270 568 266C567 262 567 258 567 255C567 245 570 236 575 229C580 221 588 217 601 217C614 217 627 222 640 231C652 240 663 253 673 270C682 286 690 305 696 327C701 348 704 371 704 396C704 432 698 465 685 495C672 525 653 551 630 573C606 594 577 611 544 624C511 636 474 642 434 642C391 642 351 635 315 620C278 605 247 584 220 557C193 530 172 497 157 459C142 421 134 379 134 332C134 289 141 250 155 214C169 177 189 146 216 119C242 92 274 72 313 57C351 42 394 34 443 34C477 34 510 39 543 50C576 60 607 76 636 98L681 37C667 24 651 12 632 2C613 -9 593 -18 572 -25C551 -32 529 -37 507 -41C485 -45 464 -47 443 -47C384 -47 331 -38 282 -20C233 -1 190 25 155 58C119 91 91 130 72 177C52 224 42 275 42 332C42 390 52 443 73 492C94 540 122 581 157 616C192 650 234 677 282 696C329 715 380 724 433 724C484 724 531 716 575 699C618 682 656 660 688 631C720 602 745 567 764 527C782 487 791 444 791 397C791 359 786 324 775 293C764 262 750 235 732 212C713 189 692 171 669 158C645 145 620 138 594 138ZM504 368C504 395 498 416 485 431C472 446 454 453 429 453C412 453 396 449 383 441C370 432 358 422 349 409C340 396 333 381 328 364C323 347 320 331 320 315C320 288 326 265 338 247C350 228 370 219 397 219C412 219 426 223 439 230C452 237 463 248 473 261C482 274 490 290 495 308C500 326 503 346 504 368Z"/>
<glyph unicode="&#x41;" horiz-adv-x="711" d="M503 178L203 178L137 0L10 0L286 709L425 709L701 0L570 0L503 178ZM245 289L461 289L353 579L245 289Z"/>
<glyph unicode="&#x42;" horiz-adv-x="607" d="M329 709C363 709 393 704 420 695C447 686 469 673 488 656C507 639 521 618 531 595C540 572 545 546 545 518C545 480 535 448 516 422C496 395 471 376 440 365C478 355 509 335 532 305C555 274 567 238 567 196C567 167 562 141 551 117C540 93 526 72 507 55C488 38 464 24 437 15C410 5 380 0 347 0L85 0L85 709L329 709ZM313 409C348 409 376 418 396 436C415 454 425 478 425 508C425 538 415 562 395 580C375 598 347 607 310 607L204 607L204 409L313 409ZM326 102C362 102 391 111 413 129C434 147 445 172 445 204C445 235 435 260 416 279C396 298 367 308 330 308L204 308L204 102L326 102Z"/>
<glyph unicode="&#x43;" horiz-adv-x="758" d="M400 -15C352 -15 307 -7 264 10C221 27 183 51 150 83C117 114 90 153 71 199C52 244 42 296 42 354C42 412 52 464 72 510C92 555 119 594 152 626C185 657 223 682 266 699C309 716 353 724 399 724C444 724 484 718 520 706C556 693 587 677 614 656C641 635 663 610 680 582C697 554 710 525 718 494L605 456C600 477 592 498 581 517C570 536 556 552 539 566C522 580 502 591 479 599C456 607 429 611 399 611C370 611 341 606 313 595C285 584 260 568 238 547C216 526 198 499 185 467C172 434 165 397 165 354C165 313 172 276 185 245C198 213 215 186 237 165C259 144 284 128 313 117C341 106 370 100 400 100C430 100 457 104 480 113C503 122 524 133 541 148C558 163 573 179 585 198C596 217 605 236 611 256L721 220C713 190 700 161 683 133C666 104 644 79 617 58C590 36 558 18 522 5C486 -8 445 -15 400 -15Z"/>
<glyph unicode="&#x44;" horiz-adv-x="722" d="M331 110C362 110 391 115 418 125C445 135 469 150 490 170C510 190 526 215 538 246C550 276 556 312 556 353C556 394 550 431 539 462C527 493 511 518 491 539C470 559 446 574 419 584C392 594 363 599 332 599L205 599L205 110L331 110ZM85 0L85 709L336 709C384 709 429 701 471 686C513 670 550 647 581 617C612 586 636 549 654 505C672 460 681 410 681 353C681 296 672 246 654 202C636 158 611 121 580 91C549 61 512 38 470 23C428 8 383 0 335 0L85 0Z"/>
<glyph unicode="&#x45;" horiz-adv-x="582" d="M85 0L85 709L523 709L523 597L205 597L205 409L493 409L493 300L205 300L205 112L523 112L523 0L85 0Z"/>
<glyph unicode="&#x46;" horiz-adv-x="557" d="M85 0L85 709L526 709L526 596L205 596L205 397L493 397L493 286L205 286L205 0L85 0Z"/>
<glyph unicode="&#x47;" horiz-adv-x="774" d="M617 0L608 90C600 77 590 64 577 52C564 39 548 28 530 18C512 8 491 0 468 -6C445 -12 419 -15 391 -15C345 -15 301 -7 259 10C216 27 179 51 147 83C115 114 90 153 71 199C52 244 42 296 42 355C42 413 52 465 72 511C92 557 119 596 152 627C185 658 223 682 266 699C309 716 353 724 399 724C442 724 481 718 516 707C551 695 583 679 610 660C637 640 659 617 678 591C696 565 710 537 719 508L606 465C600 485 591 504 580 522C568 540 553 556 536 569C519 582 499 593 476 601C453 609 427 613 399 613C370 613 342 608 314 598C286 587 261 571 239 550C216 529 198 502 185 470C171 437 164 399 164 355C164 312 171 274 184 242C197 209 214 182 236 161C257 139 282 123 310 112C338 101 367 95 398 95C434 95 465 101 490 112C515 123 535 136 551 152C567 168 579 185 587 204C595 222 600 239 601 254L367 254L367 359L714 359L714 0L617 0Z"/>
<glyph unicode="&#x48;" horiz-adv-x="744" d="M538 0L538 303L205 303L205 0L85 0L85 709L205 709L205 416L538 416L538 709L659 709L659 0L538 0Z"/>
<glyph unicode="&#x49;" horiz-adv-x="292" d="M85 0L85 709L207 709L207 0L85 0Z"/>
<glyph unicode="&#x4a;" horiz-adv-x="547" d="M20 260L137 284L137 218C137 176 147 146 168 127C189 108 215 98 246 98C278 98 303 108 322 129C341 149 350 177 350 213L350 709L470 709L470 216C470 185 465 155 454 127C443 99 428 75 409 54C390 33 366 16 339 4C312 -9 281 -15 247 -15C212 -15 181 -10 153 2C125 13 101 28 82 48C62 68 47 92 36 120C25 148 20 179 20 214L20 260Z"/>
<glyph unicode="&#x4b;" horiz-adv-x="685" d="M299 307L205 204L205 0L85 0L85 709L205 709L205 369L510 709L668 709L381 396L671 0L520 0L299 307Z"/>
<glyph unicode="&#x4c;" horiz-adv-x="555" d="M85 0L85 709L205 709L205 114L530 114L530 0L85 0Z"/>
<glyph unicode="&#x4d;" horiz-adv-x="950" d="M746 0L746 522L525 0L421 0L202 520L202 0L85 0L85 709L245 709L475 168L702 709L865 709L865 0L746 0Z"/>
<glyph unicode="&#x4e;" horiz-adv-x="765" d="M555 0L205 537L205 0L85 0L85 709L238 709L560 206L560 709L680 709L680 0L555 0Z"/>
<glyph unicode="&#x4f;" horiz-adv-x="805" d="M165 355C165 312 172 275 186 243C199 211 217 184 239 163C261 142 286 126 315 115C343 104 372 99 402 99C432 99 461 104 490 115C519 126 544 142 566 163C588 184 606 211 620 243C633 275 640 312 640 355C640 398 633 435 620 467C606 499 588 526 566 547C544 568 519 584 490 595C461 606 432 611 402 611C372 611 343 606 315 595C286 584 261 568 239 547C217 526 199 499 186 467C172 435 165 398 165 355ZM42 355C42 413 52 465 72 511C92 556 119 595 152 627C185 658 224 682 267 699C310 716 355 724 402 724C449 724 494 716 537 699C580 682 619 658 652 627C685 595 712 556 733 511C753 465 763 413 763 355C763 297 753 245 733 199C712 153 685 114 652 83C619 51 580 27 537 10C494 -7 449 -15 402 -15C355 -15 310 -7 267 10C224 27 185 51 152 83C119 114 92 153 72 199C52 245 42 297 42 355Z"/>
<glyph unicode="&#x50;" horiz-adv-x="602" d="M330 383C368 383 398 393 420 412C441 431 452 458 452 492C452 526 441 553 420 573C398 593 368 603 330 603L205 603L205 383L330 383ZM205 277L205 0L85 0L85 709L348 709C382 709 413 704 441 693C468 682 492 667 512 648C532 629 547 606 558 579C569 552 574 524 574 493C574 462 569 433 558 407C547 380 532 357 512 338C492 319 468 304 441 293C413 282 382 277 348 277L205 277Z"/>
<glyph unicode="&#x51;" horiz-adv-x="805" d="M42 355C42 413 52 465 72 511C92 556 119 595 152 627C185 658 224 682 267 699C310 716 355 724 402 724C449 724 494 716 537 699C580 682 619 658 652 627C685 595 712 556 733 511C753 465 763 413 763 355C763 302 755 255 738 213C721 170 699 133 671 102L755 8L674 -61L587 34C559 18 529 6 498 -3C467 -11 435 -15 402 -15C355 -15 310 -7 267 10C224 27 185 51 152 83C119 114 92 153 72 199C52 245 42 297 42 355ZM165 355C165 312 172 275 186 243C199 211 217 184 239 163C261 142 286 126 315 115C343 104 372 99 402 99C420 99 438 101 456 105C474 108 491 114 508 122L391 252L473 322L591 191C606 212 618 236 627 263C636 290 640 320 640 355C640 398 633 435 620 467C606 499 588 526 566 547C544 568 519 584 490 595C461 606 432 611 402 611C372 611 343 606 315 595C286 584 261 568 239 547C217 526 199 499 186 467C172 435 165 398 165 355Z"/>
<glyph unicode="&#x52;" horiz-adv-x="622" d="M294 280L206 280L206 0L85 0L85 709L357 709C391 709 422 704 450 693C477 682 501 666 520 647C539 627 553 604 564 578C574 552 579 524 579 494C579 443 565 400 537 364C508 328 469 304 419 292L579 0L443 0L294 280ZM335 386C372 386 402 396 424 416C446 435 457 461 457 494C457 527 446 554 424 574C402 593 372 603 335 603L206 603L206 386L335 386Z"/>
<glyph unicode="&#x53;" horiz-adv-x="599" d="M443 509C441 520 437 532 432 545C426 558 418 569 407 580C396 591 382 600 365 607C348 614 328 618 304 618C286 618 270 615 255 610C240 604 227 596 216 587C205 578 197 567 191 555C185 542 182 529 182 516C182 493 189 474 203 458C216 442 237 431 265 425L367 404C430 391 477 367 510 330C543 293 559 250 559 200C559 173 554 146 543 120C532 94 515 71 494 51C473 31 447 15 416 3C385 -9 349 -15 308 -15C263 -15 224 -9 191 5C158 18 130 35 108 56C85 77 68 100 56 126C44 152 37 178 34 203L146 235C148 216 153 199 160 182C167 165 178 150 192 137C205 124 222 113 241 105C260 97 283 93 308 93C351 93 383 102 405 121C426 140 437 163 437 191C437 214 429 235 413 252C396 269 373 280 342 287L242 308C188 319 145 342 112 376C79 410 62 454 62 507C62 537 68 565 81 592C94 618 111 641 133 661C155 680 181 696 210 707C239 718 270 724 303 724C345 724 381 718 410 707C439 696 464 681 484 664C503 646 518 626 529 605C540 584 547 563 551 543L443 509Z"/>
<glyph unicode="&#x54;" horiz-adv-x="607" d="M363 596L363 0L243 0L243 596L13 596L13 709L594 709L594 596L363 596Z"/>
<glyph unicode="&#x55;" horiz-adv-x="683" d="M341 -15C304 -15 269 -9 237 2C205 13 177 30 154 52C130 74 111 101 98 134C84 167 77 204 77 247L77 709L196 709L196 254C196 204 209 166 235 139C260 112 296 99 341 99C387 99 423 112 448 139C473 166 486 204 486 254L486 709L606 709L606 247C606 204 599 167 586 134C572 101 553 74 530 52C506 30 478 13 446 2C413 -9 378 -15 341 -15Z"/>
<glyph unicode="&#x56;" horiz-adv-x="674" d="M537 709L664 709L396 0L274 0L10 709L140 709L338 157L537 709Z"/>
<glyph unicode="&#x57;" horiz-adv-x="1017" d="M880 709L1004 709L805 0L681 0L509 536L337 0L214 0L13 709L139 709L281 191L447 709L572 709L741 187L880 709Z"/>
<glyph unicode="&#x58;" horiz-adv-x="646" d="M395 354L630 0L486 0L321 259L154 0L13 0L250 355L15 709L159 709L324 449L490 709L631 709L395 354Z"/>
<glyph unicode="&#x59;" horiz-adv-x="638" d="M10 709L152 709L322 412L493 709L628 709L378 300L378 0L258 0L258 300L10 709Z"/>
<glyph unicode="&#x5a;" horiz-adv-x="636" d="M42 0L42 118L435 596L53 596L53 709L590 709L590 595L192 114L595 114L595 0L42 0Z"/>
<glyph unicode="&#x5b;" horiz-adv-x="304" d="M85 -157L85 799L299 799L299 709L183 709L183 -66L299 -66L299 -157L85 -157Z"/>
<glyph unicode="&#x5c;" horiz-adv-x="457" d="M0 714L110 714L457 -5L348 -5L0 714Z"/>
<glyph unicode="&#x5d;" horiz-adv-x="304" d="M5 -157L5 -66L121 -66L121 709L5 709L5 799L219 799L219 -157L5 -157Z"/>
<glyph unicode="&#x5e;" horiz-adv-x="526" d="M393 352L264 596L134 352L20 352L216 710L310 710L506 352L393 352Z"/>
<glyph unicode="&#x5f;" horiz-adv-x="531" d="M10 -96L10 0L521 0L521 -96L10 -96Z"/>
<glyph unicode="&#x60;" horiz-adv-x="285" d="M29 696L168 696L256 548L161 548L29 696Z"/>
<glyph unicode="&#x61;" horiz-adv-x="532" d="M45 132C45 154 49 173 57 190C64 207 75 221 88 234C101 246 116 256 134 263C152 270 171 276 192 279L317 298C331 300 341 304 346 311C351 317 353 324 353 333C353 354 346 371 331 386C316 400 293 407 261 407C230 407 207 399 190 382C173 365 164 344 161 319L55 343C57 364 63 384 74 403C85 422 99 439 116 454C133 469 154 480 179 489C203 498 230 502 260 502C297 502 329 497 356 487C382 477 403 464 420 447C436 430 448 411 456 389C463 367 467 344 467 320L467 78C467 56 468 38 470 25C471 11 472 3 473 0L365 0C364 1 363 7 362 18C361 28 360 43 360 62C349 43 331 26 306 10C281 -7 249 -15 210 -15C185 -15 162 -11 142 -3C121 5 104 16 90 30C75 43 64 59 57 77C49 94 45 113 45 132ZM232 76C248 76 263 78 278 83C293 87 306 94 317 104C328 113 336 126 343 142C350 158 353 178 353 202L353 224L226 205C208 202 193 195 180 185C167 174 161 159 161 139C161 122 167 108 179 95C191 82 209 76 232 76Z"/>
<glyph unicode="&#x62;" horiz-adv-x="604" d="M75 0L75 724L189 724L189 427C200 446 219 463 246 478C272 493 304 500 342 500C379 500 411 494 439 481C467 468 491 450 510 427C529 404 543 377 553 346C562 315 567 282 567 246C567 209 562 175 551 144C540 112 525 85 506 62C486 39 462 21 434 8C405 -6 373 -12 338 -12C303 -12 273 -5 248 9C222 23 202 42 188 65L188 0L75 0ZM450 245C450 294 438 331 414 358C389 384 358 397 319 397C282 397 251 384 226 358C201 331 188 294 188 245C188 221 191 200 198 181C205 162 214 145 226 132C237 119 251 109 267 102C283 95 300 91 319 91C357 91 388 105 413 132C438 159 450 197 450 245Z"/>
<glyph unicode="&#x63;" horiz-adv-x="541" d="M287 395C269 395 252 392 236 385C220 378 206 369 194 356C181 343 171 328 164 309C157 290 153 269 153 244C153 219 157 198 164 179C171 160 181 144 194 131C206 118 220 108 237 101C254 94 271 91 289 91C308 91 324 94 339 100C353 106 365 114 375 123C384 132 392 141 398 152C404 162 408 172 411 181L513 144C507 125 498 106 486 87C474 68 459 51 441 36C422 21 400 8 375 -1C350 -10 321 -15 289 -15C253 -15 220 -9 189 5C158 18 132 36 110 59C87 82 70 110 57 141C44 172 37 207 37 244C37 281 43 316 56 348C69 379 86 407 109 430C132 453 158 470 188 483C218 496 251 502 286 502C319 502 348 497 373 488C398 479 420 467 439 452C458 437 473 419 484 400C495 381 504 361 509 342L405 304C402 315 398 326 393 337C387 348 379 357 370 366C360 375 348 382 335 387C322 392 306 395 287 395Z"/>
<glyph unicode="&#x64;" horiz-adv-x="602" d="M153 245C153 198 165 161 189 133C212 104 244 90 284 90C303 90 320 94 336 102C352 109 366 120 377 134C388 147 397 164 404 183C410 202 413 223 413 246C413 293 401 330 378 357C354 384 323 397 285 397C247 397 216 383 191 356C166 329 153 292 153 245ZM525 89C525 67 526 48 527 31C528 14 529 4 530 0L419 0C418 5 417 15 416 28C415 41 414 53 414 63C403 42 385 25 360 10C335 -5 306 -12 271 -12C236 -12 204 -6 175 8C146 21 122 39 102 62C81 85 65 112 54 143C43 174 37 208 37 245C37 280 43 313 54 344C65 375 81 402 102 425C122 448 146 467 175 480C204 493 235 500 269 500C290 500 309 498 325 494C341 489 355 484 367 477C378 470 388 462 395 454C402 446 408 438 412 430L412 724L525 724L525 89Z"/>
<glyph unicode="&#x65;" horiz-adv-x="548" d="M395 297C394 311 392 325 387 338C382 351 374 362 364 372C354 382 342 390 327 396C312 402 295 405 275 405C257 405 241 402 227 396C212 389 200 381 190 371C180 360 172 349 166 336C160 323 157 310 156 297L395 297ZM506 139C499 118 490 98 477 79C464 60 449 44 430 30C411 16 390 5 366 -3C342 -11 315 -15 286 -15C253 -15 221 -9 191 3C161 14 135 31 112 54C89 76 71 103 58 136C44 168 37 205 37 246C37 285 44 320 57 351C70 382 87 409 109 432C131 454 156 471 185 484C214 496 243 502 274 502C311 502 345 496 375 484C404 472 429 455 450 433C470 411 485 385 496 354C507 323 512 288 512 249C512 240 512 232 511 225C510 218 510 213 509 212L153 212C154 193 158 176 165 161C172 146 182 132 194 121C206 110 220 101 236 95C251 88 268 85 286 85C321 85 349 93 368 110C387 126 400 146 408 170L506 139Z"/>
<glyph unicode="&#x66;" horiz-adv-x="350" d="M291 625C283 625 275 624 267 622C258 620 251 616 244 611C237 605 231 597 226 588C221 578 219 566 219 551L219 487L332 487L332 386L219 386L219 0L102 0L102 386L17 386L17 487L102 487L102 554C102 581 106 606 115 628C123 649 135 668 150 683C165 698 182 709 203 717C224 725 247 729 272 729C287 729 300 728 311 726C322 723 329 721 333 719L333 620C330 621 325 623 318 624C311 625 302 625 291 625Z"/>
<glyph unicode="&#x67;" horiz-adv-x="589" d="M147 1C151 -29 164 -54 186 -74C207 -94 235 -104 269 -104C361 -104 407 -55 407 42L407 93C396 74 379 57 356 43C332 29 302 22 266 22C233 22 203 28 176 40C149 52 125 69 105 90C85 111 69 136 58 165C47 194 41 225 41 259C41 292 47 322 58 351C69 380 84 405 104 426C123 447 147 464 175 477C202 490 233 496 266 496C304 496 335 489 359 476C382 462 399 445 410 425L410 487L522 487L522 46C522 13 518 -18 509 -48C500 -78 485 -105 466 -128C446 -151 420 -170 389 -184C357 -198 318 -205 272 -205C240 -205 211 -200 184 -191C157 -182 133 -169 113 -153C92 -137 76 -118 64 -97C51 -75 43 -52 40 -27L147 1ZM285 121C322 121 353 134 376 159C399 184 410 217 410 259C410 280 407 299 401 316C394 333 386 347 375 359C364 371 350 380 335 387C320 393 303 396 285 396C248 396 217 384 194 359C170 334 158 301 158 259C158 216 170 183 193 158C216 133 247 121 285 121Z"/>
<glyph unicode="&#x68;" horiz-adv-x="574" d="M191 0L75 0L75 724L191 724L191 440C208 461 229 477 254 487C279 496 305 501 330 501C360 501 386 496 409 486C431 476 449 462 464 445C479 427 490 406 497 383C504 360 508 335 508 308L508 0L392 0L392 288C392 318 385 344 370 365C355 386 329 396 292 396C260 396 236 386 219 365C202 344 192 317 191 286L191 0Z"/>
<glyph unicode="&#x69;" horiz-adv-x="265" d="M75 0L75 487L190 487L190 0L75 0ZM57 658C57 679 64 697 79 712C94 727 111 734 132 734C153 734 171 727 186 712C201 697 208 679 208 658C208 637 201 619 186 605C171 590 153 583 132 583C111 583 94 590 79 605C64 619 57 637 57 658Z"/>
<glyph unicode="&#x6a;" horiz-adv-x="266" d="M75 487L191 487L191 -49C191 -72 188 -93 181 -112C174 -131 165 -147 152 -161C139 -175 124 -186 107 -194C89 -201 69 -205 46 -205C27 -205 12 -204 1 -202C-11 -199 -17 -197 -20 -196L-20 -100C-17 -101 -13 -101 -6 -102C2 -103 8 -103 15 -103C37 -103 53 -98 62 -87C71 -76 75 -60 75 -40L75 487ZM57 659C57 680 64 698 79 713C94 728 111 735 132 735C153 735 171 728 186 713C201 698 208 680 208 659C208 638 201 621 186 606C171 591 153 584 132 584C111 584 94 591 79 606C64 621 57 638 57 659Z"/>
<glyph unicode="&#x6b;" horiz-adv-x="544" d="M331 281L535 0L393 0L250 199L190 136L190 0L75 0L75 724L190 724L190 290L377 487L531 487L331 281Z"/>
<glyph unicode="&#x6c;" horiz-adv-x="266" d="M75 0L75 724L191 724L191 0L75 0Z"/>
<glyph unicode="&#x6d;" horiz-adv-x="873" d="M75 0L75 487L186 487L186 425C200 450 221 469 248 482C275 495 303 501 330 501C362 501 391 494 417 480C443 465 463 444 476 415C495 447 519 469 546 482C573 495 602 501 634 501C656 501 677 497 698 490C719 483 737 472 753 457C769 442 782 422 792 399C801 376 806 348 806 316L806 0L694 0L694 297C694 326 687 350 672 369C657 388 633 397 600 397C569 397 545 387 527 366C508 345 499 319 499 289L499 0L385 0L385 297C385 325 378 349 363 368C348 387 324 397 291 397C260 397 235 387 217 367C199 346 190 320 190 289L190 0L75 0Z"/>
<glyph unicode="&#x6e;" horiz-adv-x="574" d="M191 0L75 0L75 487L188 487L188 422C204 450 225 470 252 483C278 495 305 501 332 501C362 501 388 496 410 486C432 476 450 462 465 445C479 427 490 406 497 383C504 360 508 335 508 308L508 0L392 0L392 288C392 318 385 344 370 365C355 386 329 396 292 396C259 396 234 385 217 363C200 340 191 313 191 281L191 0Z"/>
<glyph unicode="&#x6f;" horiz-adv-x="579" d="M289 89C307 89 324 92 341 99C357 106 371 116 384 129C397 142 407 158 414 177C421 196 425 219 425 244C425 269 421 292 414 311C407 330 397 346 384 359C371 372 357 381 341 388C324 394 307 397 289 397C271 397 254 394 238 388C221 381 207 372 195 359C182 346 172 330 165 311C157 292 153 269 153 244C153 219 157 196 165 177C172 158 182 142 195 129C207 116 221 106 238 99C254 92 271 89 289 89ZM289 502C326 502 359 496 390 483C421 470 447 452 470 429C493 406 510 378 523 347C536 316 542 281 542 244C542 207 536 172 523 141C510 109 493 82 470 59C447 36 421 18 390 5C359 -9 326 -15 289 -15C253 -15 220 -9 189 5C158 18 131 36 109 59C86 82 69 109 56 141C43 172 37 207 37 244C37 281 43 316 56 347C69 378 86 406 109 429C131 452 158 470 189 483C220 496 253 502 289 502Z"/>
<glyph unicode="&#x70;" horiz-adv-x="604" d="M75 -190L75 487L187 487L187 421C199 442 218 461 245 476C272 491 304 498 342 498C378 498 410 492 438 479C466 466 490 448 509 425C528 402 542 376 552 345C562 314 567 280 567 244C567 207 562 174 551 143C540 112 525 85 505 62C485 39 461 21 433 8C404 -6 373 -12 338 -12C303 -12 272 -6 247 8C222 21 203 36 190 55L190 -190L75 -190ZM451 244C451 290 439 327 415 354C391 381 359 395 320 395C301 395 283 391 267 384C251 377 237 367 226 354C215 341 206 325 199 306C192 287 189 267 189 244C189 197 201 160 226 133C251 105 282 91 320 91C359 91 390 105 415 133C439 160 451 197 451 244Z"/>
<glyph unicode="&#x71;" horiz-adv-x="596" d="M414 -190L414 58C402 37 384 20 359 7C334 -6 305 -12 271 -12C236 -12 205 -5 176 8C147 21 123 40 102 63C81 86 65 113 54 144C43 175 37 209 37 245C37 280 42 313 53 344C64 375 79 402 99 425C119 448 143 466 172 479C201 492 233 499 268 499C289 499 308 497 325 492C342 487 356 481 368 474C380 466 390 458 399 449C407 440 413 431 417 422L417 487L528 487L528 -190L414 -190ZM154 245C154 222 157 201 164 182C170 163 179 146 191 133C202 119 216 108 232 101C247 94 265 90 284 90C303 90 320 94 337 101C353 108 367 119 378 133C389 146 398 163 405 182C412 201 415 222 415 245C415 292 403 329 378 356C353 383 322 396 284 396C245 396 214 383 190 356C166 329 154 292 154 245Z"/>
<glyph unicode="&#x72;" horiz-adv-x="380" d="M360 372C347 374 334 375 322 375C277 375 244 363 223 338C202 313 191 278 191 232L191 0L75 0L75 487L188 487L188 409C199 436 218 456 243 471C268 486 297 493 329 493C336 493 343 493 348 492C353 491 357 491 360 490L360 372Z"/>
<glyph unicode="&#x73;" horiz-adv-x="457" d="M133 160C135 138 144 119 161 102C177 85 201 77 232 77C256 77 274 83 287 94C299 105 305 118 305 133C305 146 300 158 291 167C282 176 267 183 248 187L176 203C133 212 100 230 78 256C56 281 45 311 45 345C45 366 50 387 59 406C68 425 81 441 97 456C113 470 132 481 154 490C175 498 199 502 224 502C258 502 287 497 310 488C333 478 351 466 366 452C381 438 392 423 399 408C406 392 410 378 412 366L314 338C313 345 310 352 307 361C304 370 299 378 292 385C285 392 276 399 265 404C254 409 240 411 224 411C203 411 187 406 174 395C161 384 154 370 154 355C154 342 158 331 167 322C176 313 188 307 203 304L277 289C323 279 358 261 382 235C405 208 417 177 417 141C417 122 413 104 406 86C398 67 387 51 372 36C357 21 337 8 314 -1C291 -10 264 -15 233 -15C198 -15 168 -10 143 0C118 10 98 23 82 38C66 53 54 69 46 86C38 103 33 118 32 132L133 160Z"/>
<glyph unicode="&#x74;" horiz-adv-x="365" d="M222 487L323 487L323 384L222 384L222 158C222 137 227 121 237 112C247 102 263 97 284 97C292 97 300 98 308 99C316 100 321 100 324 101L324 5C321 4 313 2 302 -2C291 -5 274 -6 253 -6C208 -6 172 7 146 32C120 57 107 93 107 139L107 384L17 384L17 487L42 487C68 487 87 494 99 509C111 524 117 542 117 563L117 636L222 636L222 487Z"/>
<glyph unicode="&#x75;" horiz-adv-x="577" d="M392 54C380 32 361 15 336 4C310 -8 283 -14 254 -14C225 -14 199 -9 176 1C153 11 134 25 119 43C103 60 91 81 83 104C74 127 70 153 70 180L70 487L186 487L186 201C186 186 188 171 192 158C195 145 201 133 209 123C217 113 227 105 240 99C252 93 267 90 284 90C318 90 344 100 361 121C378 141 386 167 386 199L386 487L502 487L502 89C502 69 503 52 504 37C505 22 506 9 507 0L396 0C395 5 394 13 393 24C392 34 392 44 392 54Z"/>
<glyph unicode="&#x76;" horiz-adv-x="525" d="M324 0L208 0L10 487L138 487L267 139L393 487L515 487L324 0Z"/>
<glyph unicode="&#x77;" horiz-adv-x="814" d="M471 487L586 150L683 487L801 487L645 0L529 0L408 350L290 0L171 0L13 487L137 487L236 150L351 487L471 487Z"/>
<glyph unicode="&#x78;" horiz-adv-x="513" d="M188 246L14 487L152 487C153 484 157 479 163 471C168 463 175 454 182 443C189 432 197 421 206 409C214 396 222 385 229 374C236 363 243 354 249 346C254 338 258 333 259 331L365 487L497 487L326 248L503 0L367 0L254 163C252 160 248 155 243 147C238 138 231 129 224 118C216 107 208 95 199 82C190 69 182 57 175 46C167 35 160 25 155 17C149 8 145 3 144 0L11 0L188 246Z"/>
<glyph unicode="&#x79;" horiz-adv-x="543" d="M99 -197L216 58L8 487L139 487L279 179L410 487L533 487L223 -197L99 -197Z"/>
<glyph unicode="&#x7a;" horiz-adv-x="474" d="M38 0L38 101L285 385L43 385L43 487L431 487L431 389L181 102L436 102L436 0L38 0Z"/>
<glyph unicode="&#x7b;" horiz-adv-x="365" d="M45 373C59 373 73 375 86 378C99 381 110 387 119 395C128 402 136 412 142 425C147 437 150 452 150 469L150 609C150 674 166 722 199 753C232 784 278 799 337 799L360 799L360 710L338 710C308 710 286 703 271 688C256 673 248 648 248 613L248 447C248 414 239 387 221 366C203 345 178 330 146 323C178 316 203 301 221 280C239 258 248 231 248 198L248 32C248 -3 256 -27 271 -42C286 -57 308 -64 338 -64L360 -64L360 -153L337 -153C278 -153 232 -138 199 -107C166 -76 150 -28 150 37L150 176C150 211 140 236 119 251C98 266 74 273 45 273L45 373Z"/>
<glyph unicode="&#x7c;" horiz-adv-x="268" d="M85 -153L85 799L183 799L183 -153L85 -153Z"/>
<glyph unicode="&#x7d;" horiz-adv-x="365" d="M320 273C291 273 267 266 246 251C225 236 215 211 215 176L215 37C215 -28 199 -76 166 -107C133 -138 87 -153 28 -153L5 -153L5 -64L27 -64C57 -64 80 -57 95 -42C110 -27 117 -3 117 32L117 198C117 231 126 258 144 280C162 301 187 316 219 323C187 330 162 345 144 366C126 387 117 414 117 447L117 613C117 648 110 673 95 688C80 703 57 710 27 710L5 710L5 799L28 799C87 799 133 784 166 753C199 722 215 674 215 609L215 469C215 452 218 437 224 425C229 412 237 402 246 395C255 387 267 381 280 378C293 375 306 373 320 373L320 273Z"/>
<glyph unicode="&#x7e;" horiz-adv-x="577" d="M240 261C221 270 204 275 188 275C171 275 154 270 139 261C123 252 109 238 96 221L30 274C49 307 72 332 100 349C127 366 157 374 189 374C206 374 222 372 239 368C256 363 273 356 290 347L336 322C354 312 372 307 391 307C408 307 425 312 441 321C456 330 470 343 481 360L547 307C528 274 505 250 478 233C451 216 421 208 389 208C356 208 322 217 287 236L240 261Z"/>
<glyph unicode="&#xa0;" horiz-adv-x="248" />
<glyph unicode="&#xa1;" horiz-adv-x="291" d="M216 -213L74 -213L104 285L187 285L216 -213ZM72 429C72 449 79 466 94 481C108 495 125 502 145 502C165 502 182 495 197 481C212 466 219 449 219 429C219 408 212 391 197 377C182 363 165 356 145 356C125 356 108 363 94 377C79 391 72 408 72 429Z"/>
<glyph unicode="&#xa2;" horiz-adv-x="546" d="M234 0L234 90C207 95 181 105 158 119C135 133 115 150 98 171C81 192 68 215 59 241C50 267 45 295 45 325C45 355 50 383 59 410C68 436 82 459 99 480C116 500 136 517 159 531C182 544 207 554 234 559L234 649L325 649L325 561C350 557 372 550 391 541C410 531 427 520 442 507C456 494 468 479 477 464C486 448 493 432 497 416L397 381C393 396 385 412 374 427C363 442 346 452 325 459L325 188C348 195 366 206 379 222C391 238 399 253 403 267L501 232C496 216 488 200 479 185C469 169 457 154 443 141C428 128 411 116 392 107C372 97 350 90 325 87L325 0L234 0ZM154 325C154 291 162 263 177 241C192 218 211 202 234 193L234 455C211 446 192 430 177 409C162 387 154 359 154 325Z"/>
<glyph unicode="&#xa3;" horiz-adv-x="593" d="M131 368C124 383 119 399 115 416C110 433 108 452 108 473C108 499 113 524 123 547C133 570 147 590 165 607C183 624 205 638 230 648C255 658 283 663 314 663C353 663 385 657 412 646C439 635 460 620 476 602C492 584 504 564 511 543C518 521 522 500 523 480L413 462C412 495 403 521 386 538C369 555 345 563 316 563C292 563 271 555 252 540C233 525 223 502 223 471C223 452 226 435 231 418C236 401 243 385 250 368L438 368L438 273L279 273C280 269 280 265 281 261C281 257 281 253 281 249C281 218 274 190 261 165C247 139 226 118 198 103L375 103C404 103 426 112 441 131C456 150 463 172 463 197L571 185C571 158 567 134 559 111C551 88 540 69 525 53C510 36 491 23 470 14C449 5 425 0 398 0L62 0L62 104C95 117 122 135 141 159C160 182 169 208 169 237C169 243 169 249 168 255C167 261 166 267 165 273L67 273L67 368L131 368Z"/>
<glyph unicode="&#xa4;" horiz-adv-x="585" d="M80 242C80 263 83 284 89 303C94 322 102 339 113 356L39 431L111 502L185 426C201 435 218 443 237 448C256 453 275 456 295 456C334 456 369 447 401 428L474 502L545 431L475 359C486 342 495 324 501 304C507 284 510 263 510 242C510 221 507 200 501 181C495 161 487 143 476 126L545 56L475 -14L404 58C371 39 335 29 295 29C254 29 217 39 183 60L110 -14L39 56L112 130C91 163 80 200 80 242ZM179 242C179 225 182 209 188 195C194 181 202 169 213 158C223 147 235 139 249 134C263 128 278 125 295 125C312 125 327 128 341 134C355 139 367 147 378 158C388 169 396 181 402 195C407 209 410 225 410 242C410 259 407 274 402 289C396 303 388 315 378 326C367 337 355 345 341 351C327 356 312 359 295 359C278 359 263 356 249 351C235 345 223 337 213 326C202 315 194 303 188 289C182 274 179 259 179 242Z"/>
<glyph unicode="&#xa5;" horiz-adv-x="600" d="M361 144L361 0L245 0L245 144L74 144L74 228L245 228L245 302L74 302L74 386L185 386L23 648L158 648L304 397L446 648L576 648L418 386L535 386L535 302L361 302L361 228L535 228L535 144L361 144Z"/>
<glyph unicode="&#xa6;" horiz-adv-x="268" d="M183 799L183 400L85 400L85 799L183 799ZM183 245L183 -154L85 -154L85 245L183 245Z"/>
<glyph unicode="&#xa7;" horiz-adv-x="566" d="M488 246C488 231 486 217 481 204C476 191 470 179 463 168C455 157 446 148 437 140C428 132 418 126 408 121C435 102 455 81 469 56C483 31 490 4 490 -23C490 -52 484 -78 473 -101C461 -124 445 -144 426 -161C407 -177 385 -190 360 -199C335 -208 308 -212 281 -212C249 -212 220 -208 195 -199C170 -190 148 -177 131 -160C114 -143 100 -124 91 -101C82 -78 77 -53 76 -25L185 -5C185 -39 193 -66 210 -85C226 -104 250 -114 282 -114C309 -114 330 -107 347 -93C364 -78 372 -58 372 -33C372 -18 368 -4 359 10C350 23 337 33 322 41L219 94C200 103 183 113 166 124C149 135 134 147 121 161C108 174 98 190 91 207C83 224 79 244 79 267C79 282 81 297 86 310C91 323 97 334 105 345C112 356 121 365 130 373C139 380 149 387 159 392C132 411 111 432 98 457C84 482 77 508 77 536C77 565 83 591 95 614C106 637 122 657 141 674C160 690 183 702 208 711C233 720 259 724 286 724C318 724 347 719 372 710C397 701 419 688 436 671C453 654 467 635 476 612C485 589 490 565 491 538L381 518C381 553 373 579 356 598C339 617 316 626 285 626C258 626 236 619 219 604C202 589 194 569 194 545C194 514 211 489 245 472L347 419C366 410 384 400 401 389C418 378 433 365 446 352C459 339 469 323 477 306C484 289 488 269 488 246ZM225 355C214 348 205 338 198 327C191 315 187 302 187 288C187 272 191 258 199 246C206 233 220 222 239 212L340 158C351 165 361 175 368 186C375 197 379 210 379 225C379 241 375 255 368 267C360 279 346 290 327 301L225 355Z"/>
<glyph unicode="&#xa8;" horiz-adv-x="393" d="M32 625C32 643 38 658 51 671C63 684 78 690 96 690C115 690 130 684 143 671C156 658 162 643 162 625C162 606 156 591 143 579C130 566 115 560 96 560C78 560 63 566 51 579C38 591 32 606 32 625ZM232 625C232 643 238 658 251 671C263 684 278 690 296 690C314 690 329 684 342 671C355 658 361 643 361 625C361 606 355 591 342 579C329 566 314 560 296 560C278 560 263 566 251 579C238 591 232 606 232 625Z"/>
<glyph unicode="&#xa9;" horiz-adv-x="818" d="M124 355C124 314 131 275 146 239C161 203 181 172 206 146C231 119 261 99 296 84C331 69 368 61 408 61C448 61 485 69 520 84C554 99 584 119 610 146C635 172 655 203 670 239C685 275 692 314 692 355C692 396 685 435 670 471C655 506 635 537 610 564C584 590 554 611 520 626C485 641 448 648 408 648C368 648 331 641 296 626C261 611 231 590 206 564C181 537 161 506 146 471C131 435 124 396 124 355ZM42 355C42 406 52 453 71 498C90 543 116 582 149 616C182 649 220 676 265 695C310 714 357 724 408 724C459 724 506 714 551 695C596 676 635 649 668 616C701 582 728 543 747 498C766 453 776 406 776 355C776 304 766 256 747 211C728 166 701 127 668 94C635 60 596 33 551 14C506 -5 459 -15 408 -15C357 -15 310 -5 265 14C220 33 182 60 149 94C116 127 90 166 71 211C52 256 42 304 42 355ZM412 473C397 473 384 471 372 466C359 461 348 453 339 443C329 433 321 421 315 406C309 391 306 374 306 355C306 336 309 319 315 304C321 289 329 276 339 266C348 255 360 248 373 243C386 238 399 235 413 235C428 235 441 237 452 242C463 247 473 253 481 260C488 267 494 274 499 282C504 290 507 298 509 305L589 276C584 261 577 246 568 231C559 216 547 203 533 191C518 179 501 169 481 162C461 155 438 151 413 151C385 151 359 156 335 167C310 177 289 191 272 210C255 228 241 249 231 274C220 299 215 326 215 355C215 384 220 411 230 436C240 461 254 482 272 501C289 519 310 533 334 543C357 553 383 558 411 558C436 558 459 554 479 547C499 540 516 530 531 518C546 506 558 493 567 478C576 463 582 447 586 432L504 402C502 411 499 419 495 428C490 436 484 444 477 451C469 458 460 463 450 467C439 471 427 473 412 473Z"/>
<glyph unicode="&#xaa;" horiz-adv-x="425" d="M59 399C59 430 69 454 89 471C109 488 133 498 162 502L248 515C257 516 264 519 268 524C272 529 274 534 274 539C274 552 269 564 259 573C249 582 234 586 213 586C193 586 177 580 166 569C155 558 148 544 147 529L66 546C67 560 72 574 79 588C86 601 95 613 108 624C121 634 136 642 153 649C170 656 190 659 213 659C240 659 263 656 282 649C301 642 316 632 328 620C339 608 348 594 353 579C358 563 361 546 361 529L361 360C361 346 362 334 363 324C364 313 364 307 365 305L283 305C282 306 282 311 281 319C280 326 279 336 279 347C270 334 258 322 241 311C224 300 203 295 177 295C159 295 143 298 128 304C113 309 101 317 91 327C80 336 72 347 67 360C62 372 59 385 59 399ZM196 363C206 363 216 364 225 367C234 370 243 374 250 381C257 387 263 395 268 406C272 417 274 430 274 445L274 460L192 448C180 446 170 442 162 435C153 428 149 417 149 404C149 393 153 384 161 376C168 367 180 363 196 363Z"/>
<glyph unicode="&#xab;" horiz-adv-x="500" d="M163 100L28 293L164 487L275 487L141 292L274 100L163 100ZM370 100L235 293L371 487L482 487L348 292L481 100L370 100Z"/>
<glyph unicode="&#xac;" horiz-adv-x="583" d="M422 142L422 337L45 337L45 434L523 434L523 142L422 142Z"/>
<glyph unicode="&#xad;" horiz-adv-x="372" d="M45 241L45 344L327 344L327 241L45 241Z"/>
<glyph unicode="&#xae;" horiz-adv-x="818" d="M42 355C42 406 52 453 71 498C90 543 116 582 149 616C182 649 220 676 265 695C310 714 357 724 408 724C459 724 506 714 551 695C596 676 635 649 668 616C701 582 728 543 747 498C766 453 776 406 776 355C776 304 766 256 747 211C728 166 701 127 668 94C635 60 596 33 551 14C506 -5 459 -15 408 -15C357 -15 310 -5 265 14C220 33 182 60 149 94C116 127 90 166 71 211C52 256 42 304 42 355ZM124 355C124 314 131 275 146 239C161 203 181 172 206 146C231 119 261 99 296 84C331 69 368 61 408 61C448 61 485 69 520 84C554 99 584 119 610 146C635 172 655 203 670 239C685 275 692 314 692 355C692 396 685 435 670 471C655 506 635 537 610 564C584 590 554 611 520 626C485 641 448 648 408 648C368 648 331 641 296 626C261 611 231 590 206 564C181 537 161 506 146 471C131 435 124 396 124 355ZM395 301L366 301L366 157L280 157L280 558L429 558C448 558 466 555 483 548C500 541 514 532 527 521C539 509 549 495 556 480C563 465 566 448 566 430C566 402 559 378 544 357C529 336 509 321 484 312L569 157L471 157L395 301ZM415 374C435 374 451 379 462 389C473 398 478 412 478 429C478 446 473 460 462 470C451 480 435 485 415 485L366 485L366 374L415 374Z"/>
<glyph unicode="&#xaf;" horiz-adv-x="338" d="M30 577L30 667L308 667L308 577L30 577Z"/>
<glyph unicode="&#xb0;" horiz-adv-x="372" d="M115 500C115 479 122 461 136 447C149 433 166 426 186 426C206 426 223 433 236 447C249 461 256 479 256 500C256 521 249 539 236 553C223 566 206 573 186 573C166 573 149 566 136 553C122 539 115 521 115 500ZM22 500C22 523 26 544 35 563C44 582 56 599 71 614C86 629 103 640 123 649C143 657 164 661 186 661C208 661 229 657 249 649C268 640 286 629 301 614C316 599 328 582 337 563C346 544 350 523 350 500C350 477 346 456 337 437C328 417 316 400 301 386C286 371 268 360 248 352C228 344 207 340 185 340C163 340 142 344 123 353C103 361 86 372 71 387C56 401 44 418 35 437C26 456 22 477 22 500Z"/>
<glyph unicode="&#xb1;" horiz-adv-x="581" d="M241 405L241 534L340 534L340 405L518 405L518 311L340 311L340 183L241 183L241 311L63 311L63 405L241 405ZM518 143L518 47L63 47L63 143L518 143Z"/>
<glyph unicode="&#xb2;" horiz-adv-x="392" d="M62 566C60 576 59 586 59 596C59 612 62 627 68 642C74 657 83 670 95 681C106 692 121 700 138 707C155 714 175 717 197 717C219 717 239 714 256 708C273 701 287 693 299 682C310 671 319 658 325 644C331 629 334 614 334 598C334 575 327 554 314 536C301 517 282 501 259 487L188 444C177 436 170 428 168 419L337 419L337 343L56 343L56 355C56 387 63 416 76 441C89 466 111 488 143 507L203 543C230 559 244 578 244 599C244 610 240 621 232 630C224 639 212 643 195 643C179 643 166 638 157 629C148 619 143 606 143 591C143 588 143 585 144 580C144 575 145 571 146 567L62 566Z"/>
<glyph unicode="&#xb3;" horiz-adv-x="412" d="M135 468C138 451 145 438 158 427C170 416 185 410 204 410C223 410 238 415 249 425C260 434 265 446 265 459C265 478 259 491 246 499C233 506 219 510 204 510C193 510 183 508 173 504L141 565L232 634L68 634L68 709L347 709L347 637L253 568C283 565 308 554 327 535C346 516 356 491 356 458C356 441 353 426 346 411C339 396 329 383 316 372C303 361 287 352 268 345C249 338 228 335 205 335C183 335 163 338 146 345C128 351 113 359 101 369C88 379 78 391 71 404C63 417 58 430 55 444L135 468Z"/>
<glyph unicode="&#xb4;" horiz-adv-x="286" d="M125 548L30 548L119 696L256 696L125 548Z"/>
<glyph unicode="&#xb5;" horiz-adv-x="584" d="M397 54C385 32 366 15 341 4C315 -8 288 -14 259 -14C234 -14 211 -10 191 -2L191 -190L75 -190L75 487L191 487L191 201C191 186 193 171 197 158C200 145 206 133 214 123C222 113 232 105 245 99C257 93 272 90 289 90C323 90 349 100 366 121C383 141 391 167 391 199L391 487L507 487L507 89C507 74 508 58 509 43C510 28 511 13 512 0L401 0C400 5 399 13 398 24C397 34 397 44 397 54Z"/>
<glyph unicode="&#xb6;" horiz-adv-x="648" d="M341 -197L246 -197L246 310L229 310C202 310 176 315 152 325C128 335 107 349 89 366C71 383 57 404 46 428C35 452 30 478 30 505C30 538 36 567 49 593C61 618 78 640 99 657C120 674 144 687 173 696C201 705 231 709 262 709L628 709L628 616L531 616L531 -197L436 -197L436 616L341 616L341 -197Z"/>
<glyph unicode="&#xb7;" horiz-adv-x="284" d="M65 298C65 319 73 338 88 353C103 368 122 376 143 376C165 376 184 368 199 353C214 338 222 319 222 298C222 276 214 258 199 243C184 228 165 221 143 221C122 221 103 228 88 243C73 258 65 276 65 298Z"/>
<glyph unicode="&#xb8;" horiz-adv-x="296" d="M82 -62L130 13L208 13L169 -47C198 -48 221 -56 239 -71C257 -86 266 -106 266 -131C266 -143 264 -155 259 -166C254 -177 247 -186 238 -195C228 -203 215 -210 200 -215C184 -220 165 -223 143 -223C116 -223 93 -218 73 -208C52 -198 37 -187 28 -175L69 -125C76 -132 85 -139 98 -148C110 -156 125 -160 142 -160C154 -160 164 -158 173 -153C182 -148 186 -141 186 -130C186 -122 183 -115 176 -109C169 -103 158 -100 145 -100C135 -100 126 -102 117 -105L82 -62Z"/>
<glyph unicode="&#xb9;" horiz-adv-x="298" d="M132 343L132 576L43 576L43 636C72 637 94 645 111 660C128 675 138 691 141 709L223 709L223 343L132 343Z"/>
<glyph unicode="&#xba;" horiz-adv-x="483" d="M242 376C265 376 286 384 304 401C322 418 331 443 331 477C331 511 322 536 304 553C286 569 265 577 242 577C219 577 198 569 180 553C162 536 153 511 153 477C153 444 162 419 180 402C198 385 219 376 242 376ZM242 659C268 659 292 655 314 646C336 637 355 624 371 608C387 592 400 573 409 551C418 528 422 504 422 477C422 450 418 426 409 404C400 381 387 362 371 346C355 330 336 318 314 309C292 300 268 295 242 295C216 295 192 300 170 309C148 318 129 330 113 346C97 362 85 381 76 404C67 426 62 450 62 477C62 504 67 528 76 551C85 573 97 592 113 608C129 624 148 637 170 646C192 655 216 659 242 659Z"/>
<glyph unicode="&#xbb;" horiz-adv-x="500" d="M226 100L359 292L225 487L336 487L472 293L337 100L226 100ZM19 100L152 292L18 487L129 487L265 293L130 100L19 100Z"/>
<glyph unicode="&#xbc;" horiz-adv-x="796" d="M139 282L139 515L50 515L50 575C79 576 101 584 118 599C135 614 145 630 148 648L230 648L230 282L139 282ZM417 160L589 367L688 367L688 145L750 145L750 72L688 72L688 1L598 1L598 72L417 72L417 160ZM598 270L495 145L598 145L598 270ZM90 0L552 648L656 648L195 0L90 0Z"/>
<glyph unicode="&#xbd;" horiz-adv-x="805" d="M139 282L139 515L50 515L50 575C79 576 101 584 118 599C135 614 145 630 148 648L230 648L230 282L139 282ZM89 0L551 648L655 648L194 0L89 0ZM483 224C481 234 480 244 480 254C480 270 483 285 489 300C495 315 504 328 516 339C527 350 542 358 559 365C576 372 596 375 618 375C640 375 660 372 677 366C694 359 708 351 720 340C731 329 740 316 746 302C752 287 755 272 755 256C755 233 748 212 735 194C722 175 703 159 680 145L609 102C598 94 591 86 589 77L758 77L758 1L477 1L477 13C477 45 484 74 497 99C510 124 532 146 564 165L624 201C651 217 665 236 665 257C665 268 661 279 653 288C645 297 633 301 616 301C600 301 587 296 578 287C569 277 564 264 564 249C564 246 564 243 565 238C565 233 566 229 567 225L483 224Z"/>
<glyph unicode="&#xbe;" horiz-adv-x="869" d="M133 407C136 390 143 377 156 366C168 355 183 349 202 349C221 349 236 354 247 364C258 373 263 385 263 398C263 417 257 430 244 438C231 445 217 449 202 449C191 449 181 447 171 443L139 504L230 573L66 573L66 648L345 648L345 576L251 507C281 504 306 493 325 474C344 455 354 430 354 397C354 380 351 365 344 350C337 335 327 322 314 311C301 300 285 291 266 284C247 277 226 274 203 274C181 274 161 277 144 284C126 290 111 298 99 308C86 318 76 330 69 343C61 356 56 369 53 383L133 407ZM491 160L663 367L762 367L762 145L824 145L824 72L762 72L762 1L672 1L672 72L491 72L491 160ZM672 270L569 145L672 145L672 270ZM175 0L637 648L741 648L280 0L175 0Z"/>
<glyph unicode="&#xbf;" horiz-adv-x="487" d="M307 286C309 274 310 261 310 248C310 218 304 191 292 166C280 141 259 119 230 98L184 65C167 53 155 40 148 25C141 10 137 -6 137 -23C137 -49 146 -72 164 -93C181 -113 208 -123 245 -123C264 -123 281 -120 295 -113C309 -106 321 -98 330 -87C339 -76 346 -63 351 -50C355 -36 357 -22 357 -7C357 0 357 8 356 17C355 25 353 32 351 38L465 26C467 19 468 11 469 4C470 -4 470 -12 470 -20C470 -45 465 -70 456 -95C447 -120 433 -142 414 -162C395 -181 372 -197 344 -210C316 -222 283 -228 245 -228C208 -228 175 -222 147 -211C118 -200 94 -185 75 -166C56 -147 41 -126 32 -102C22 -78 17 -53 17 -28C17 12 26 46 45 75C63 103 87 127 116 148L159 178C175 189 187 204 196 221C204 238 208 256 208 276L208 286L307 286ZM184 429C184 449 191 466 205 481C219 495 236 502 257 502C277 502 294 495 309 481C323 466 330 449 330 429C330 409 323 392 309 378C294 363 277 356 257 356C236 356 219 363 205 378C191 392 184 409 184 429Z"/>
<glyph unicode="&#xc0;" horiz-adv-x="711" d="M503 178L203 178L137 0L10 0L286 709L425 709L701 0L570 0L503 178ZM245 289L461 289L353 579L245 289ZM163 883L311 883L414 759L306 759L163 883Z"/>
<glyph unicode="&#xc1;" horiz-adv-x="711" d="M503 178L203 178L137 0L10 0L286 709L425 709L701 0L570 0L503 178ZM245 289L461 289L353 579L245 289ZM404 759L295 759L397 883L546 883L404 759Z"/>
<glyph unicode="&#xc2;" horiz-adv-x="711" d="M503 178L203 178L137 0L10 0L286 709L425 709L701 0L570 0L503 178ZM245 289L461 289L353 579L245 289ZM171 759L287 883L416 883L535 759L425 759L350 823L278 759L171 759Z"/>
<glyph unicode="&#xc3;" horiz-adv-x="711" d="M503 178L203 178L137 0L10 0L286 709L425 709L701 0L570 0L503 178ZM245 289L461 289L353 579L245 289ZM517 863C517 826 508 799 489 781C470 762 446 753 418 753C403 753 390 755 378 760C366 765 355 770 345 776L335 783C327 788 319 793 312 796C305 799 297 800 290 800C283 800 276 797 270 792C263 787 260 778 260 767L260 757L185 757L185 779C185 816 195 844 214 862C233 880 257 889 285 889C300 889 313 887 326 882C338 877 349 872 359 866L369 860C377 855 385 851 392 848C399 845 405 843 412 843C421 843 428 846 434 851C440 856 443 864 443 876L443 886L517 886L517 863Z"/>
<glyph unicode="&#xc4;" horiz-adv-x="711" d="M134 821C134 840 140 856 153 869C166 882 181 888 200 888C219 888 235 882 248 869C261 856 267 840 267 821C267 802 261 787 248 774C235 761 219 755 200 755C181 755 166 761 153 774C140 787 134 802 134 821ZM441 821C441 840 447 856 460 869C472 882 487 888 506 888C525 888 541 882 554 869C567 856 573 840 573 821C573 802 567 787 554 774C541 761 525 755 506 755C487 755 472 761 460 774C447 787 441 802 441 821ZM503 178L203 178L137 0L10 0L286 709L425 709L701 0L570 0L503 178ZM245 289L461 289L353 579L245 289Z"/>
<glyph unicode="&#xc5;" horiz-adv-x="711" d="M245 289L461 289L353 579L245 289ZM353 709C367 709 379 714 389 723C398 732 403 744 403 759C403 774 398 786 389 795C379 804 367 808 353 808C339 808 327 804 318 795C308 786 303 774 303 759C303 744 308 732 318 723C327 714 339 709 353 709ZM483 759C483 740 479 722 472 707C465 691 454 677 441 666L701 0L570 0L503 178L203 178L137 0L10 0L268 663C255 674 244 688 236 705C228 722 224 740 224 759C224 777 228 794 235 809C242 824 251 838 263 849C274 860 288 869 304 876C319 882 336 885 353 885C370 885 387 882 403 876C418 869 432 860 444 849C456 838 466 824 473 809C480 794 483 777 483 759Z"/>
<glyph unicode="&#xc6;" horiz-adv-x="1044" d="M548 0L548 180L271 180L156 0L7 0L477 709L986 709L986 597L668 597L668 409L956 409L956 300L668 300L668 112L986 112L986 0L548 0ZM548 283L548 611L337 283L548 283Z"/>
<glyph unicode="&#xc7;" horiz-adv-x="758" d="M335 -62L366 -13C322 -9 280 2 241 21C202 39 167 64 138 95C108 126 85 164 68 208C51 251 42 300 42 354C42 412 52 464 72 510C92 555 119 594 152 626C185 657 223 682 266 699C309 716 353 724 399 724C444 724 484 718 520 706C556 693 587 677 614 656C641 635 663 610 680 582C697 554 710 525 718 494L605 456C600 477 592 498 581 517C570 536 556 552 539 566C522 580 502 591 479 599C456 607 429 611 399 611C370 611 341 606 313 595C285 584 260 568 238 547C216 526 198 499 185 467C172 434 165 397 165 354C165 313 172 276 185 245C198 213 215 186 237 165C259 144 284 128 313 117C341 106 370 100 400 100C430 100 457 104 480 113C503 122 524 133 541 148C558 163 573 179 585 198C596 217 605 236 611 256L721 220C714 193 702 166 687 140C672 113 652 90 629 69C606 48 579 30 548 16C517 1 483 -8 444 -12L422 -47C451 -48 474 -56 492 -71C510 -86 519 -106 519 -131C519 -143 517 -155 512 -166C507 -177 500 -186 491 -195C481 -203 468 -210 453 -215C437 -220 418 -223 396 -223C369 -223 346 -218 326 -208C305 -198 290 -187 281 -175L322 -125C329 -132 338 -139 351 -148C363 -156 378 -160 395 -160C407 -160 417 -158 426 -153C435 -148 439 -141 439 -130C439 -122 436 -115 429 -109C422 -103 411 -100 398 -100C388 -100 379 -102 370 -105L335 -62Z"/>
<glyph unicode="&#xc8;" horiz-adv-x="582" d="M137 883L285 883L388 759L280 759L137 883ZM85 0L85 709L523 709L523 597L205 597L205 409L493 409L493 300L205 300L205 112L523 112L523 0L85 0Z"/>
<glyph unicode="&#xc9;" horiz-adv-x="582" d="M332 759L223 759L325 883L474 883L332 759ZM85 0L85 709L523 709L523 597L205 597L205 409L493 409L493 300L205 300L205 112L523 112L523 0L85 0Z"/>
<glyph unicode="&#xca;" horiz-adv-x="582" d="M121 759L237 883L366 883L485 759L375 759L300 823L228 759L121 759ZM85 0L85 709L523 709L523 597L205 597L205 409L493 409L493 300L205 300L205 112L523 112L523 0L85 0Z"/>
<glyph unicode="&#xcb;" horiz-adv-x="582" d="M125 821C125 840 131 856 144 869C157 882 172 888 191 888C210 888 226 882 239 869C252 856 258 840 258 821C258 802 252 787 239 774C226 761 210 755 191 755C172 755 157 761 144 774C131 787 125 802 125 821ZM353 821C353 840 359 856 372 869C384 882 400 888 419 888C438 888 453 882 466 869C479 856 485 840 485 821C485 802 479 787 466 774C453 761 438 755 419 755C400 755 384 761 372 774C359 787 353 802 353 821ZM85 0L85 709L523 709L523 597L205 597L205 409L493 409L493 300L205 300L205 112L523 112L523 0L85 0Z"/>
<glyph unicode="&#xcc;" horiz-adv-x="292" d="M85 0L85 709L207 709L207 0L85 0ZM-46 883L102 883L205 759L97 759L-46 883Z"/>
<glyph unicode="&#xcd;" horiz-adv-x="292" d="M85 0L85 709L207 709L207 0L85 0ZM197 759L88 759L190 883L339 883L197 759Z"/>
<glyph unicode="&#xce;" horiz-adv-x="292" d="M85 0L85 709L207 709L207 0L85 0ZM-30 759L86 883L215 883L334 759L224 759L149 823L77 759L-30 759Z"/>
<glyph unicode="&#xcf;" horiz-adv-x="292" d="M85 0L85 709L207 709L207 0L85 0ZM1 821C1 838 7 853 19 865C30 877 45 883 62 883C79 883 94 877 107 865C119 853 125 838 125 821C125 804 119 789 107 777C94 765 79 759 62 759C45 759 30 765 19 777C7 789 1 804 1 821ZM171 821C171 838 177 853 189 865C201 877 216 883 233 883C250 883 265 877 277 865C289 853 295 838 295 821C295 804 289 789 277 777C265 765 250 759 233 759C216 759 201 765 189 777C177 789 171 804 171 821Z"/>
<glyph unicode="&#xd0;" horiz-adv-x="740" d="M99 0L99 319L17 319L17 412L99 412L99 709L350 709C398 709 443 701 485 686C527 670 564 647 595 617C626 586 650 549 668 505C686 460 695 410 695 353C695 296 686 246 668 202C650 158 625 121 594 91C563 61 526 38 484 23C442 8 397 0 349 0L99 0ZM345 110C376 110 405 115 432 125C459 135 483 150 504 170C524 190 540 215 552 246C564 276 570 312 570 353C570 394 564 431 553 462C541 493 525 518 505 539C484 559 460 574 433 584C406 594 377 599 346 599L219 599L219 412L350 412L350 319L219 319L219 110L345 110Z"/>
<glyph unicode="&#xd1;" horiz-adv-x="765" d="M550 863C550 826 541 799 522 781C503 762 479 753 451 753C436 753 423 755 411 760C399 765 388 770 378 776L368 783C360 788 352 793 345 796C338 799 330 800 323 800C316 800 309 797 303 792C296 787 293 778 293 767L293 757L218 757L218 779C218 816 228 844 247 862C266 880 290 889 318 889C333 889 346 887 359 882C371 877 382 872 392 866L402 860C410 855 418 851 425 848C432 845 438 843 445 843C454 843 461 846 467 851C473 856 476 864 476 876L476 886L550 886L550 863ZM555 0L205 537L205 0L85 0L85 709L238 709L560 206L560 709L680 709L680 0L555 0Z"/>
<glyph unicode="&#xd2;" horiz-adv-x="805" d="M210 883L358 883L461 759L353 759L210 883ZM165 355C165 312 172 275 186 243C199 211 217 184 239 163C261 142 286 126 315 115C343 104 372 99 402 99C432 99 461 104 490 115C519 126 544 142 566 163C588 184 606 211 620 243C633 275 640 312 640 355C640 398 633 435 620 467C606 499 588 526 566 547C544 568 519 584 490 595C461 606 432 611 402 611C372 611 343 606 315 595C286 584 261 568 239 547C217 526 199 499 186 467C172 435 165 398 165 355ZM42 355C42 413 52 465 72 511C92 556 119 595 152 627C185 658 224 682 267 699C310 716 355 724 402 724C449 724 494 716 537 699C580 682 619 658 652 627C685 595 712 556 733 511C753 465 763 413 763 355C763 297 753 245 733 199C712 153 685 114 652 83C619 51 580 27 537 10C494 -7 449 -15 402 -15C355 -15 310 -7 267 10C224 27 185 51 152 83C119 114 92 153 72 199C52 245 42 297 42 355Z"/>
<glyph unicode="&#xd3;" horiz-adv-x="805" d="M448 759L339 759L441 883L590 883L448 759ZM165 355C165 312 172 275 186 243C199 211 217 184 239 163C261 142 286 126 315 115C343 104 372 99 402 99C432 99 461 104 490 115C519 126 544 142 566 163C588 184 606 211 620 243C633 275 640 312 640 355C640 398 633 435 620 467C606 499 588 526 566 547C544 568 519 584 490 595C461 606 432 611 402 611C372 611 343 606 315 595C286 584 261 568 239 547C217 526 199 499 186 467C172 435 165 398 165 355ZM42 355C42 413 52 465 72 511C92 556 119 595 152 627C185 658 224 682 267 699C310 716 355 724 402 724C449 724 494 716 537 699C580 682 619 658 652 627C685 595 712 556 733 511C753 465 763 413 763 355C763 297 753 245 733 199C712 153 685 114 652 83C619 51 580 27 537 10C494 -7 449 -15 402 -15C355 -15 310 -7 267 10C224 27 185 51 152 83C119 114 92 153 72 199C52 245 42 297 42 355Z"/>
<glyph unicode="&#xd4;" horiz-adv-x="805" d="M221 759L337 883L466 883L585 759L475 759L400 823L328 759L221 759ZM165 355C165 312 172 275 186 243C199 211 217 184 239 163C261 142 286 126 315 115C343 104 372 99 402 99C432 99 461 104 490 115C519 126 544 142 566 163C588 184 606 211 620 243C633 275 640 312 640 355C640 398 633 435 620 467C606 499 588 526 566 547C544 568 519 584 490 595C461 606 432 611 402 611C372 611 343 606 315 595C286 584 261 568 239 547C217 526 199 499 186 467C172 435 165 398 165 355ZM42 355C42 413 52 465 72 511C92 556 119 595 152 627C185 658 224 682 267 699C310 716 355 724 402 724C449 724 494 716 537 699C580 682 619 658 652 627C685 595 712 556 733 511C753 465 763 413 763 355C763 297 753 245 733 199C712 153 685 114 652 83C619 51 580 27 537 10C494 -7 449 -15 402 -15C355 -15 310 -7 267 10C224 27 185 51 152 83C119 114 92 153 72 199C52 245 42 297 42 355Z"/>
<glyph unicode="&#xd5;" horiz-adv-x="805" d="M569 864C569 827 560 800 541 782C522 763 498 754 470 754C455 754 442 756 430 761C418 766 407 771 397 777L387 784C379 789 371 794 364 797C357 800 349 801 342 801C335 801 328 798 322 793C315 788 312 779 312 768L312 758L237 758L237 780C237 817 247 845 266 863C285 881 309 890 337 890C352 890 365 888 378 883C390 878 401 873 411 867L421 861C429 856 437 852 444 849C451 846 457 844 464 844C473 844 480 847 486 852C492 857 495 865 495 877L495 887L569 887L569 864ZM165 355C165 312 172 275 186 243C199 211 217 184 239 163C261 142 286 126 315 115C343 104 372 99 402 99C432 99 461 104 490 115C519 126 544 142 566 163C588 184 606 211 620 243C633 275 640 312 640 355C640 398 633 435 620 467C606 499 588 526 566 547C544 568 519 584 490 595C461 606 432 611 402 611C372 611 343 606 315 595C286 584 261 568 239 547C217 526 199 499 186 467C172 435 165 398 165 355ZM42 355C42 413 52 465 72 511C92 556 119 595 152 627C185 658 224 682 267 699C310 716 355 724 402 724C449 724 494 716 537 699C580 682 619 658 652 627C685 595 712 556 733 511C753 465 763 413 763 355C763 297 753 245 733 199C712 153 685 114 652 83C619 51 580 27 537 10C494 -7 449 -15 402 -15C355 -15 310 -7 267 10C224 27 185 51 152 83C119 114 92 153 72 199C52 245 42 297 42 355Z"/>
<glyph unicode="&#xd6;" horiz-adv-x="805" d="M175 821C175 840 181 856 194 869C207 882 222 888 241 888C260 888 276 882 289 869C302 856 308 840 308 821C308 802 302 787 289 774C276 761 260 755 241 755C222 755 207 761 194 774C181 787 175 802 175 821ZM498 821C498 840 504 856 517 869C530 882 545 888 564 888C583 888 599 882 612 869C625 856 631 840 631 821C631 802 625 787 612 774C599 761 583 755 564 755C545 755 530 761 517 774C504 787 498 802 498 821ZM165 355C165 312 172 275 186 243C199 211 217 184 239 163C261 142 286 126 315 115C343 104 372 99 402 99C432 99 461 104 490 115C519 126 544 142 566 163C588 184 606 211 620 243C633 275 640 312 640 355C640 398 633 435 620 467C606 499 588 526 566 547C544 568 519 584 490 595C461 606 432 611 402 611C372 611 343 606 315 595C286 584 261 568 239 547C217 526 199 499 186 467C172 435 165 398 165 355ZM42 355C42 413 52 465 72 511C92 556 119 595 152 627C185 658 224 682 267 699C310 716 355 724 402 724C449 724 494 716 537 699C580 682 619 658 652 627C685 595 712 556 733 511C753 465 763 413 763 355C763 297 753 245 733 199C712 153 685 114 652 83C619 51 580 27 537 10C494 -7 449 -15 402 -15C355 -15 310 -7 267 10C224 27 185 51 152 83C119 114 92 153 72 199C52 245 42 297 42 355Z"/>
<glyph unicode="&#xd7;" horiz-adv-x="548" d="M274 222L107 51L38 120L206 292L39 463L108 532L274 361L440 532L509 463L342 292L510 120L441 51L274 222Z"/>
<glyph unicode="&#xd8;" horiz-adv-x="805" d="M42 355C42 413 52 465 72 511C92 556 119 595 152 627C185 658 224 682 267 699C310 716 355 724 402 724C435 724 468 720 499 711C530 702 560 690 588 674L659 765L737 705L665 613C695 581 719 544 737 501C754 458 763 409 763 355C763 297 753 245 733 199C712 153 685 114 652 83C619 51 580 27 537 10C494 -7 449 -15 402 -15C369 -15 337 -11 306 -3C275 5 245 17 217 33L149 -55L69 4L140 95C110 127 86 165 69 208C51 251 42 300 42 355ZM165 355C165 320 169 290 178 263C187 236 199 212 214 191L517 582C482 601 443 611 402 611C372 611 343 606 315 595C286 584 261 568 239 547C217 526 199 499 186 467C172 435 165 398 165 355ZM640 355C640 389 636 419 627 446C618 473 607 496 592 517L289 126C324 108 361 99 402 99C432 99 461 104 490 115C519 126 544 142 566 163C588 184 606 211 620 243C633 275 640 312 640 355Z"/>
<glyph unicode="&#xd9;" horiz-adv-x="683" d="M164 883L312 883L415 759L307 759L164 883ZM341 -15C304 -15 269 -9 237 2C205 13 177 30 154 52C130 74 111 101 98 134C84 167 77 204 77 247L77 709L196 709L196 254C196 204 209 166 235 139C260 112 296 99 341 99C387 99 423 112 448 139C473 166 486 204 486 254L486 709L606 709L606 247C606 204 599 167 586 134C572 101 553 74 530 52C506 30 478 13 446 2C413 -9 378 -15 341 -15Z"/>
<glyph unicode="&#xda;" horiz-adv-x="683" d="M371 759L262 759L364 883L513 883L371 759ZM341 -15C304 -15 269 -9 237 2C205 13 177 30 154 52C130 74 111 101 98 134C84 167 77 204 77 247L77 709L196 709L196 254C196 204 209 166 235 139C260 112 296 99 341 99C387 99 423 112 448 139C473 166 486 204 486 254L486 709L606 709L606 247C606 204 599 167 586 134C572 101 553 74 530 52C506 30 478 13 446 2C413 -9 378 -15 341 -15Z"/>
<glyph unicode="&#xdb;" horiz-adv-x="683" d="M160 759L276 883L405 883L524 759L414 759L339 823L267 759L160 759ZM341 -15C304 -15 269 -9 237 2C205 13 177 30 154 52C130 74 111 101 98 134C84 167 77 204 77 247L77 709L196 709L196 254C196 204 209 166 235 139C260 112 296 99 341 99C387 99 423 112 448 139C473 166 486 204 486 254L486 709L606 709L606 247C606 204 599 167 586 134C572 101 553 74 530 52C506 30 478 13 446 2C413 -9 378 -15 341 -15Z"/>
<glyph unicode="&#xdc;" horiz-adv-x="683" d="M158 821C158 840 164 856 177 869C189 882 205 888 224 888C243 888 258 882 271 869C284 856 290 840 290 821C290 802 284 787 271 774C258 761 243 755 224 755C205 755 189 761 177 774C164 787 158 802 158 821ZM394 821C394 840 400 856 413 869C425 882 441 888 460 888C479 888 494 882 507 869C520 856 526 840 526 821C526 802 520 787 507 774C494 761 479 755 460 755C441 755 425 761 413 774C400 787 394 802 394 821ZM341 -15C304 -15 269 -9 237 2C205 13 177 30 154 52C130 74 111 101 98 134C84 167 77 204 77 247L77 709L196 709L196 254C196 204 209 166 235 139C260 112 296 99 341 99C387 99 423 112 448 139C473 166 486 204 486 254L486 709L606 709L606 247C606 204 599 167 586 134C572 101 553 74 530 52C506 30 478 13 446 2C413 -9 378 -15 341 -15Z"/>
<glyph unicode="&#xdd;" horiz-adv-x="638" d="M10 709L152 709L322 412L493 709L628 709L378 300L378 0L258 0L258 300L10 709ZM352 759L243 759L345 883L494 883L352 759Z"/>
<glyph unicode="&#xde;" horiz-adv-x="599" d="M330 251C368 251 398 261 420 281C441 300 452 327 452 360C452 395 441 422 420 442C398 462 368 472 330 472L205 472L205 251L330 251ZM205 147L205 0L85 0L85 709L205 709L205 576L342 576C375 576 406 571 435 560C463 549 487 534 508 515C529 496 545 473 557 447C568 420 574 392 574 361C574 330 568 302 557 276C545 249 529 227 509 208C488 189 464 174 436 163C407 152 376 147 343 147L205 147Z"/>
<glyph unicode="&#xdf;" horiz-adv-x="583" d="M381 343C382 332 385 323 392 318C399 313 409 307 422 302L455 287C486 274 511 254 532 229C553 203 563 172 563 136C563 119 560 102 553 84C546 66 536 50 522 35C508 20 490 8 469 -1C448 -10 422 -15 392 -15C362 -15 336 -10 315 -1C294 8 277 20 264 34C251 48 241 63 235 80C228 97 225 112 225 127L321 149C321 142 322 134 325 126C328 117 332 109 337 102C342 95 350 89 359 84C368 79 379 76 392 76C413 76 428 82 438 93C448 104 453 116 453 128C453 155 436 176 403 191L371 205C359 210 347 217 334 224C321 231 310 239 300 249C289 259 281 271 274 285C267 299 264 316 264 335C264 363 271 386 284 404C297 422 312 437 329 448L354 465C370 475 383 486 393 499C402 511 407 525 407 542C407 563 399 582 382 598C365 614 339 622 305 622C290 622 275 619 261 614C247 608 235 599 224 588C213 577 205 562 199 545C192 527 189 506 189 482L189 0L75 0L75 489C75 528 81 562 94 591C106 620 123 645 144 665C165 684 189 699 217 709C244 719 274 724 305 724C338 724 368 719 395 710C422 701 444 688 463 672C482 656 496 637 507 616C517 595 522 572 522 547C522 528 520 510 515 495C510 480 503 466 495 454C487 442 478 432 467 423C456 414 445 405 434 398L410 383C401 378 394 372 389 366C384 360 381 352 381 343Z"/>
<glyph unicode="&#xe0;" horiz-adv-x="532" d="M45 132C45 154 49 173 57 190C64 207 75 221 88 234C101 246 116 256 134 263C152 270 171 276 192 279L317 298C331 300 341 304 346 311C351 317 353 324 353 333C353 354 346 371 331 386C316 400 293 407 261 407C230 407 207 399 190 382C173 365 164 344 161 319L55 343C57 364 63 384 74 403C85 422 99 439 116 454C133 469 154 480 179 489C203 498 230 502 260 502C297 502 329 497 356 487C382 477 403 464 420 447C436 430 448 411 456 389C463 367 467 344 467 320L467 78C467 56 468 38 470 25C471 11 472 3 473 0L365 0C364 1 363 7 362 18C361 28 360 43 360 62C349 43 331 26 306 10C281 -7 249 -15 210 -15C185 -15 162 -11 142 -3C121 5 104 16 90 30C75 43 64 59 57 77C49 94 45 113 45 132ZM232 76C248 76 263 78 278 83C293 87 306 94 317 104C328 113 336 126 343 142C350 158 353 178 353 202L353 224L226 205C208 202 193 195 180 185C167 174 161 159 161 139C161 122 167 108 179 95C191 82 209 76 232 76ZM98 696L237 696L325 548L230 548L98 696Z"/>
<glyph unicode="&#xe1;" horiz-adv-x="532" d="M45 132C45 154 49 173 57 190C64 207 75 221 88 234C101 246 116 256 134 263C152 270 171 276 192 279L317 298C331 300 341 304 346 311C351 317 353 324 353 333C353 354 346 371 331 386C316 400 293 407 261 407C230 407 207 399 190 382C173 365 164 344 161 319L55 343C57 364 63 384 74 403C85 422 99 439 116 454C133 469 154 480 179 489C203 498 230 502 260 502C297 502 329 497 356 487C382 477 403 464 420 447C436 430 448 411 456 389C463 367 467 344 467 320L467 78C467 56 468 38 470 25C471 11 472 3 473 0L365 0C364 1 363 7 362 18C361 28 360 43 360 62C349 43 331 26 306 10C281 -7 249 -15 210 -15C185 -15 162 -11 142 -3C121 5 104 16 90 30C75 43 64 59 57 77C49 94 45 113 45 132ZM232 76C248 76 263 78 278 83C293 87 306 94 317 104C328 113 336 126 343 142C350 158 353 178 353 202L353 224L226 205C208 202 193 195 180 185C167 174 161 159 161 139C161 122 167 108 179 95C191 82 209 76 232 76ZM291 548L196 548L285 696L422 696L291 548Z"/>
<glyph unicode="&#xe2;" horiz-adv-x="532" d="M45 132C45 154 49 173 57 190C64 207 75 221 88 234C101 246 116 256 134 263C152 270 171 276 192 279L317 298C331 300 341 304 346 311C351 317 353 324 353 333C353 354 346 371 331 386C316 400 293 407 261 407C230 407 207 399 190 382C173 365 164 344 161 319L55 343C57 364 63 384 74 403C85 422 99 439 116 454C133 469 154 480 179 489C203 498 230 502 260 502C297 502 329 497 356 487C382 477 403 464 420 447C436 430 448 411 456 389C463 367 467 344 467 320L467 78C467 56 468 38 470 25C471 11 472 3 473 0L365 0C364 1 363 7 362 18C361 28 360 43 360 62C349 43 331 26 306 10C281 -7 249 -15 210 -15C185 -15 162 -11 142 -3C121 5 104 16 90 30C75 43 64 59 57 77C49 94 45 113 45 132ZM232 76C248 76 263 78 278 83C293 87 306 94 317 104C328 113 336 126 343 142C350 158 353 178 353 202L353 224L226 205C208 202 193 195 180 185C167 174 161 159 161 139C161 122 167 108 179 95C191 82 209 76 232 76ZM96 549L203 692L324 692L432 549L333 549L263 626L193 549L96 549Z"/>
<glyph unicode="&#xe3;" horiz-adv-x="532" d="M45 132C45 154 49 173 57 190C64 207 75 221 88 234C101 246 116 256 134 263C152 270 171 276 192 279L317 298C331 300 341 304 346 311C351 317 353 324 353 333C353 354 346 371 331 386C316 400 293 407 261 407C230 407 207 399 190 382C173 365 164 344 161 319L55 343C57 364 63 384 74 403C85 422 99 439 116 454C133 469 154 480 179 489C203 498 230 502 260 502C297 502 329 497 356 487C382 477 403 464 420 447C436 430 448 411 456 389C463 367 467 344 467 320L467 78C467 56 468 38 470 25C471 11 472 3 473 0L365 0C364 1 363 7 362 18C361 28 360 43 360 62C349 43 331 26 306 10C281 -7 249 -15 210 -15C185 -15 162 -11 142 -3C121 5 104 16 90 30C75 43 64 59 57 77C49 94 45 113 45 132ZM232 76C248 76 263 78 278 83C293 87 306 94 317 104C328 113 336 126 343 142C350 158 353 178 353 202L353 224L226 205C208 202 193 195 180 185C167 174 161 159 161 139C161 122 167 108 179 95C191 82 209 76 232 76ZM101 574C101 613 111 642 131 661C150 680 175 689 204 689C219 689 232 687 243 683C254 678 264 673 274 667L284 661C291 656 299 652 306 649C313 646 320 644 327 644C348 644 358 659 358 688L434 688L434 671C434 632 424 602 405 583C386 564 361 554 332 554C317 554 304 556 293 561C282 566 271 571 261 577L251 583C244 588 237 592 230 595C223 598 215 599 208 599C198 599 191 596 186 589C181 582 178 571 178 556L102 556L101 574Z"/>
<glyph unicode="&#xe4;" horiz-adv-x="532" d="M45 132C45 154 49 173 57 190C64 207 75 221 88 234C101 246 116 256 134 263C152 270 171 276 192 279L317 298C331 300 341 304 346 311C351 317 353 324 353 333C353 354 346 371 331 386C316 400 293 407 261 407C230 407 207 399 190 382C173 365 164 344 161 319L55 343C57 364 63 384 74 403C85 422 99 439 116 454C133 469 154 480 179 489C203 498 230 502 260 502C297 502 329 497 356 487C382 477 403 464 420 447C436 430 448 411 456 389C463 367 467 344 467 320L467 78C467 56 468 38 470 25C471 11 472 3 473 0L365 0C364 1 363 7 362 18C361 28 360 43 360 62C349 43 331 26 306 10C281 -7 249 -15 210 -15C185 -15 162 -11 142 -3C121 5 104 16 90 30C75 43 64 59 57 77C49 94 45 113 45 132ZM232 76C248 76 263 78 278 83C293 87 306 94 317 104C328 113 336 126 343 142C350 158 353 178 353 202L353 224L226 205C208 202 193 195 180 185C167 174 161 159 161 139C161 122 167 108 179 95C191 82 209 76 232 76ZM99 625C99 643 105 658 118 671C130 684 145 690 163 690C182 690 197 684 210 671C223 658 229 643 229 625C229 606 223 591 210 579C197 566 182 560 163 560C145 560 130 566 118 579C105 591 99 606 99 625ZM299 625C299 643 305 658 318 671C330 684 345 690 363 690C381 690 396 684 409 671C422 658 428 643 428 625C428 606 422 591 409 579C396 566 381 560 363 560C345 560 330 566 318 579C305 591 299 606 299 625Z"/>
<glyph unicode="&#xe5;" horiz-adv-x="532" d="M45 132C45 154 49 173 57 190C64 207 75 221 88 234C101 246 116 256 134 263C152 270 171 276 192 279L317 298C331 300 341 304 346 311C351 317 353 324 353 333C353 354 346 371 331 386C316 400 293 407 261 407C230 407 207 399 190 382C173 365 164 344 161 319L55 343C57 364 63 384 74 403C85 422 99 439 116 454C133 469 154 480 179 489C203 498 230 502 260 502C297 502 329 497 356 487C382 477 403 464 420 447C436 430 448 411 456 389C463 367 467 344 467 320L467 78C467 56 468 38 470 25C471 11 472 3 473 0L365 0C364 1 363 7 362 18C361 28 360 43 360 62C349 43 331 26 306 10C281 -7 249 -15 210 -15C185 -15 162 -11 142 -3C121 5 104 16 90 30C75 43 64 59 57 77C49 94 45 113 45 132ZM232 76C248 76 263 78 278 83C293 87 306 94 317 104C328 113 336 126 343 142C350 158 353 178 353 202L353 224L226 205C208 202 193 195 180 185C167 174 161 159 161 139C161 122 167 108 179 95C191 82 209 76 232 76ZM373 648C373 632 370 617 364 604C358 591 350 579 339 570C328 560 316 552 303 547C289 541 274 538 259 538C244 538 229 541 216 547C203 552 191 560 180 570C169 579 161 591 155 604C149 617 146 632 146 648C146 664 149 679 155 693C161 706 169 718 180 728C191 737 203 745 216 751C229 756 244 759 259 759C274 759 289 756 303 751C316 745 328 737 339 728C350 718 358 706 364 693C370 679 373 664 373 648ZM303 648C303 661 299 672 291 681C282 689 271 693 258 693C246 693 236 689 228 681C219 672 215 661 215 648C215 635 219 625 228 617C236 608 246 604 258 604C271 604 282 608 291 617C299 625 303 635 303 648Z"/>
<glyph unicode="&#xe6;" horiz-adv-x="872" d="M829 139C822 118 812 98 799 79C786 60 770 44 751 30C732 16 710 5 686 -3C661 -11 635 -15 607 -15C568 -15 531 -7 497 10C463 26 435 49 412 80C404 68 395 56 384 45C373 34 359 24 344 15C329 6 311 -2 291 -7C271 -12 249 -15 224 -15C195 -15 169 -11 147 -3C125 5 106 16 91 30C76 43 64 59 57 77C49 94 45 113 45 132C45 154 49 173 57 190C64 207 75 221 88 234C101 246 116 256 134 263C152 270 171 276 192 279L324 298C339 300 349 305 354 312C359 319 361 326 361 333C361 353 353 371 337 386C321 401 297 408 264 408C232 408 207 400 189 383C170 366 160 345 157 322L55 343C57 365 64 386 76 405C87 424 102 440 121 455C140 470 161 481 186 490C211 498 237 502 265 502C306 502 340 496 368 483C395 470 417 452 433 431C454 454 479 471 508 484C537 496 567 502 598 502C635 502 669 496 698 484C727 472 752 455 772 433C792 411 807 385 818 354C829 323 834 288 834 249C834 244 834 237 834 230C833 223 833 217 832 212L474 212C475 193 479 176 486 161C493 145 503 132 515 121C527 110 541 101 557 95C573 88 590 85 608 85C643 85 671 93 690 110C709 126 722 146 731 171L829 139ZM236 76C251 76 266 78 281 83C296 87 309 94 321 104C333 113 343 126 350 142C357 158 361 178 361 201L361 224L226 205C207 202 191 195 179 184C167 173 161 157 161 137C161 122 167 108 180 95C193 82 211 76 236 76ZM718 297C717 311 715 325 710 338C705 351 697 362 687 372C677 382 665 390 650 396C635 402 617 405 597 405C578 405 562 402 548 396C533 389 521 381 511 371C501 360 493 349 487 336C481 323 478 310 477 297L718 297Z"/>
<glyph unicode="&#xe7;" horiz-adv-x="541" d="M220 -63L253 -12C222 -8 193 1 167 16C140 31 118 49 99 72C80 94 65 120 54 149C43 178 37 210 37 244C37 281 43 316 56 348C69 379 86 407 109 430C132 453 158 470 188 483C218 496 251 502 286 502C319 502 348 497 373 488C398 479 420 467 439 452C458 437 473 419 484 400C495 381 504 361 509 342L405 304C402 315 398 326 393 337C387 348 379 357 370 366C360 375 348 382 335 387C322 392 306 395 287 395C269 395 252 392 236 385C220 378 206 369 194 356C181 343 171 328 164 309C157 290 153 269 153 244C153 219 157 198 164 179C171 160 181 144 194 131C206 118 220 108 237 101C254 94 271 91 289 91C308 91 324 94 339 100C353 106 365 114 375 123C384 132 392 141 398 152C404 162 408 172 411 181L513 144C508 127 500 110 490 93C480 76 468 61 453 47C438 32 420 20 400 10C379 -1 356 -8 330 -12L307 -48C336 -49 359 -57 377 -72C395 -87 404 -107 404 -132C404 -144 402 -156 397 -167C392 -178 385 -187 376 -196C366 -204 353 -211 338 -216C322 -221 303 -224 281 -224C254 -224 231 -219 211 -209C190 -199 175 -188 166 -176L207 -126C214 -133 223 -140 236 -149C248 -157 263 -161 280 -161C292 -161 302 -159 311 -154C320 -149 324 -142 324 -131C324 -123 321 -116 314 -110C307 -104 296 -101 283 -101C273 -101 264 -103 255 -106L220 -63Z"/>
<glyph unicode="&#xe8;" horiz-adv-x="548" d="M395 297C394 311 392 325 387 338C382 351 374 362 364 372C354 382 342 390 327 396C312 402 295 405 275 405C257 405 241 402 227 396C212 389 200 381 190 371C180 360 172 349 166 336C160 323 157 310 156 297L395 297ZM506 139C499 118 490 98 477 79C464 60 449 44 430 30C411 16 390 5 366 -3C342 -11 315 -15 286 -15C253 -15 221 -9 191 3C161 14 135 31 112 54C89 76 71 103 58 136C44 168 37 205 37 246C37 285 44 320 57 351C70 382 87 409 109 432C131 454 156 471 185 484C214 496 243 502 274 502C311 502 345 496 375 484C404 472 429 455 450 433C470 411 485 385 496 354C507 323 512 288 512 249C512 240 512 232 511 225C510 218 510 213 509 212L153 212C154 193 158 176 165 161C172 146 182 132 194 121C206 110 220 101 236 95C251 88 268 85 286 85C321 85 349 93 368 110C387 126 400 146 408 170L506 139ZM112 696L251 696L339 548L244 548L112 696Z"/>
<glyph unicode="&#xe9;" horiz-adv-x="548" d="M317 548L222 548L311 696L448 696L317 548ZM395 297C394 311 392 325 387 338C382 351 374 362 364 372C354 382 342 390 327 396C312 402 295 405 275 405C257 405 241 402 227 396C212 389 200 381 190 371C180 360 172 349 166 336C160 323 157 310 156 297L395 297ZM506 139C499 118 490 98 477 79C464 60 449 44 430 30C411 16 390 5 366 -3C342 -11 315 -15 286 -15C253 -15 221 -9 191 3C161 14 135 31 112 54C89 76 71 103 58 136C44 168 37 205 37 246C37 285 44 320 57 351C70 382 87 409 109 432C131 454 156 471 185 484C214 496 243 502 274 502C311 502 345 496 375 484C404 472 429 455 450 433C470 411 485 385 496 354C507 323 512 288 512 249C512 240 512 232 511 225C510 218 510 213 509 212L153 212C154 193 158 176 165 161C172 146 182 132 194 121C206 110 220 101 236 95C251 88 268 85 286 85C321 85 349 93 368 110C387 126 400 146 408 170L506 139Z"/>
<glyph unicode="&#xea;" horiz-adv-x="548" d="M113 549L220 692L341 692L449 549L350 549L280 626L210 549L113 549ZM395 297C394 311 392 325 387 338C382 351 374 362 364 372C354 382 342 390 327 396C312 402 295 405 275 405C257 405 241 402 227 396C212 389 200 381 190 371C180 360 172 349 166 336C160 323 157 310 156 297L395 297ZM506 139C499 118 490 98 477 79C464 60 449 44 430 30C411 16 390 5 366 -3C342 -11 315 -15 286 -15C253 -15 221 -9 191 3C161 14 135 31 112 54C89 76 71 103 58 136C44 168 37 205 37 246C37 285 44 320 57 351C70 382 87 409 109 432C131 454 156 471 185 484C214 496 243 502 274 502C311 502 345 496 375 484C404 472 429 455 450 433C470 411 485 385 496 354C507 323 512 288 512 249C512 240 512 232 511 225C510 218 510 213 509 212L153 212C154 193 158 176 165 161C172 146 182 132 194 121C206 110 220 101 236 95C251 88 268 85 286 85C321 85 349 93 368 110C387 126 400 146 408 170L506 139Z"/>
<glyph unicode="&#xeb;" horiz-adv-x="548" d="M115 625C115 643 121 658 134 671C146 684 161 690 179 690C198 690 213 684 226 671C239 658 245 643 245 625C245 606 239 591 226 579C213 566 198 560 179 560C161 560 146 566 134 579C121 591 115 606 115 625ZM315 625C315 643 321 658 334 671C346 684 361 690 379 690C397 690 412 684 425 671C438 658 444 643 444 625C444 606 438 591 425 579C412 566 397 560 379 560C361 560 346 566 334 579C321 591 315 606 315 625ZM395 297C394 311 392 325 387 338C382 351 374 362 364 372C354 382 342 390 327 396C312 402 295 405 275 405C257 405 241 402 227 396C212 389 200 381 190 371C180 360 172 349 166 336C160 323 157 310 156 297L395 297ZM506 139C499 118 490 98 477 79C464 60 449 44 430 30C411 16 390 5 366 -3C342 -11 315 -15 286 -15C253 -15 221 -9 191 3C161 14 135 31 112 54C89 76 71 103 58 136C44 168 37 205 37 246C37 285 44 320 57 351C70 382 87 409 109 432C131 454 156 471 185 484C214 496 243 502 274 502C311 502 345 496 375 484C404 472 429 455 450 433C470 411 485 385 496 354C507 323 512 288 512 249C512 240 512 232 511 225C510 218 510 213 509 212L153 212C154 193 158 176 165 161C172 146 182 132 194 121C206 110 220 101 236 95C251 88 268 85 286 85C321 85 349 93 368 110C387 126 400 146 408 170L506 139Z"/>
<glyph unicode="&#xec;" horiz-adv-x="265" d="M75 0L75 487L190 487L190 0L75 0ZM-38 696L101 696L189 548L94 548L-38 696Z"/>
<glyph unicode="&#xed;" horiz-adv-x="265" d="M176 548L81 548L170 696L307 696L176 548ZM75 0L75 487L190 487L190 0L75 0Z"/>
<glyph unicode="&#xee;" horiz-adv-x="265" d="M-34 549L73 692L194 692L302 549L203 549L133 626L63 549L-34 549ZM75 0L75 487L190 487L190 0L75 0Z"/>
<glyph unicode="&#xef;" horiz-adv-x="265" d="M-10 625C-10 642 -4 657 8 669C19 681 34 687 51 687C68 687 83 681 95 669C107 657 113 642 113 625C113 608 107 593 95 582C83 570 68 564 51 564C34 564 19 570 8 582C-4 593 -10 608 -10 625ZM152 625C152 642 158 657 170 669C181 681 196 687 213 687C230 687 245 681 257 669C269 657 275 642 275 625C275 608 269 593 257 582C245 570 230 564 213 564C196 564 181 570 170 582C158 593 152 608 152 625ZM75 0L75 487L190 487L190 0L75 0Z"/>
<glyph unicode="&#xf0;" horiz-adv-x="576" d="M417 594C453 557 483 512 506 459C529 406 540 343 540 270C540 231 535 194 524 160C513 125 496 95 475 70C454 44 427 24 396 9C365 -7 329 -14 288 -14C252 -14 219 -8 188 5C157 17 131 34 109 55C86 76 69 102 56 132C43 161 37 193 37 228C37 266 44 300 58 329C71 358 89 382 111 402C133 422 158 437 187 448C215 458 244 463 273 463C299 463 324 459 347 452C370 445 387 434 400 419C391 446 379 470 365 491C350 512 334 531 315 548L180 487L149 559L241 601C222 612 203 621 184 628C165 635 146 642 128 647L164 736C192 729 222 718 255 705C287 692 319 674 351 651L463 702L495 629L417 594ZM288 89C306 89 323 92 340 98C356 104 370 113 383 125C395 137 405 152 412 169C419 186 423 206 423 229C423 252 419 272 412 290C405 307 395 322 383 334C370 345 356 354 340 360C323 366 306 369 288 369C270 369 253 366 237 360C220 354 206 345 194 333C181 321 171 306 164 289C156 272 152 252 152 229C152 206 156 186 164 169C171 152 181 137 194 125C206 113 220 104 237 98C253 92 270 89 288 89Z"/>
<glyph unicode="&#xf1;" horiz-adv-x="574" d="M191 0L75 0L75 487L188 487L188 422C204 450 225 470 252 483C278 495 305 501 332 501C362 501 388 496 410 486C432 476 450 462 465 445C479 427 490 406 497 383C504 360 508 335 508 308L508 0L392 0L392 288C392 318 385 344 370 365C355 386 329 396 292 396C259 396 234 385 217 363C200 340 191 313 191 281L191 0ZM132 574C132 613 142 642 162 661C181 680 206 689 235 689C250 689 263 687 274 683C285 678 295 673 305 667L315 661C322 656 330 652 337 649C344 646 351 644 358 644C379 644 389 659 389 688L465 688L465 671C465 632 455 602 436 583C417 564 392 554 363 554C348 554 335 556 324 561C313 566 302 571 292 577L282 583C275 588 268 592 261 595C254 598 246 599 239 599C229 599 222 596 217 589C212 582 209 571 209 556L133 556L132 574Z"/>
<glyph unicode="&#xf2;" horiz-adv-x="579" d="M289 89C307 89 324 92 341 99C357 106 371 116 384 129C397 142 407 158 414 177C421 196 425 219 425 244C425 269 421 292 414 311C407 330 397 346 384 359C371 372 357 381 341 388C324 394 307 397 289 397C271 397 254 394 238 388C221 381 207 372 195 359C182 346 172 330 165 311C157 292 153 269 153 244C153 219 157 196 165 177C172 158 182 142 195 129C207 116 221 106 238 99C254 92 271 89 289 89ZM289 502C326 502 359 496 390 483C421 470 447 452 470 429C493 406 510 378 523 347C536 316 542 281 542 244C542 207 536 172 523 141C510 109 493 82 470 59C447 36 421 18 390 5C359 -9 326 -15 289 -15C253 -15 220 -9 189 5C158 18 131 36 109 59C86 82 69 109 56 141C43 172 37 207 37 244C37 281 43 316 56 347C69 378 86 406 109 429C131 452 158 470 189 483C220 496 253 502 289 502ZM115 696L254 696L342 548L247 548L115 696Z"/>
<glyph unicode="&#xf3;" horiz-adv-x="579" d="M327 548L232 548L321 696L458 696L327 548ZM289 89C307 89 324 92 341 99C357 106 371 116 384 129C397 142 407 158 414 177C421 196 425 219 425 244C425 269 421 292 414 311C407 330 397 346 384 359C371 372 357 381 341 388C324 394 307 397 289 397C271 397 254 394 238 388C221 381 207 372 195 359C182 346 172 330 165 311C157 292 153 269 153 244C153 219 157 196 165 177C172 158 182 142 195 129C207 116 221 106 238 99C254 92 271 89 289 89ZM289 502C326 502 359 496 390 483C421 470 447 452 470 429C493 406 510 378 523 347C536 316 542 281 542 244C542 207 536 172 523 141C510 109 493 82 470 59C447 36 421 18 390 5C359 -9 326 -15 289 -15C253 -15 220 -9 189 5C158 18 131 36 109 59C86 82 69 109 56 141C43 172 37 207 37 244C37 281 43 316 56 347C69 378 86 406 109 429C131 452 158 470 189 483C220 496 253 502 289 502Z"/>
<glyph unicode="&#xf4;" horiz-adv-x="579" d="M123 549L230 692L351 692L459 549L360 549L290 626L220 549L123 549ZM289 89C307 89 324 92 341 99C357 106 371 116 384 129C397 142 407 158 414 177C421 196 425 219 425 244C425 269 421 292 414 311C407 330 397 346 384 359C371 372 357 381 341 388C324 394 307 397 289 397C271 397 254 394 238 388C221 381 207 372 195 359C182 346 172 330 165 311C157 292 153 269 153 244C153 219 157 196 165 177C172 158 182 142 195 129C207 116 221 106 238 99C254 92 271 89 289 89ZM289 502C326 502 359 496 390 483C421 470 447 452 470 429C493 406 510 378 523 347C536 316 542 281 542 244C542 207 536 172 523 141C510 109 493 82 470 59C447 36 421 18 390 5C359 -9 326 -15 289 -15C253 -15 220 -9 189 5C158 18 131 36 109 59C86 82 69 109 56 141C43 172 37 207 37 244C37 281 43 316 56 347C69 378 86 406 109 429C131 452 158 470 189 483C220 496 253 502 289 502Z"/>
<glyph unicode="&#xf5;" horiz-adv-x="579" d="M289 89C307 89 324 92 341 99C357 106 371 116 384 129C397 142 407 158 414 177C421 196 425 219 425 244C425 269 421 292 414 311C407 330 397 346 384 359C371 372 357 381 341 388C324 394 307 397 289 397C271 397 254 394 238 388C221 381 207 372 195 359C182 346 172 330 165 311C157 292 153 269 153 244C153 219 157 196 165 177C172 158 182 142 195 129C207 116 221 106 238 99C254 92 271 89 289 89ZM289 502C326 502 359 496 390 483C421 470 447 452 470 429C493 406 510 378 523 347C536 316 542 281 542 244C542 207 536 172 523 141C510 109 493 82 470 59C447 36 421 18 390 5C359 -9 326 -15 289 -15C253 -15 220 -9 189 5C158 18 131 36 109 59C86 82 69 109 56 141C43 172 37 207 37 244C37 281 43 316 56 347C69 378 86 406 109 429C131 452 158 470 189 483C220 496 253 502 289 502ZM125 574C125 613 135 642 155 661C174 680 199 689 228 689C243 689 256 687 267 683C278 678 288 673 298 667L308 661C315 656 323 652 330 649C337 646 344 644 351 644C372 644 382 659 382 688L458 688L458 671C458 632 448 602 429 583C410 564 385 554 356 554C341 554 328 556 317 561C306 566 295 571 285 577L275 583C268 588 261 592 254 595C247 598 239 599 232 599C222 599 215 596 210 589C205 582 202 571 202 556L126 556L125 574Z"/>
<glyph unicode="&#xf6;" horiz-adv-x="579" d="M124 625C124 643 130 658 143 671C155 684 170 690 188 690C207 690 222 684 235 671C248 658 254 643 254 625C254 606 248 591 235 579C222 566 207 560 188 560C170 560 155 566 143 579C130 591 124 606 124 625ZM324 625C324 643 330 658 343 671C355 684 370 690 388 690C406 690 421 684 434 671C447 658 453 643 453 625C453 606 447 591 434 579C421 566 406 560 388 560C370 560 355 566 343 579C330 591 324 606 324 625ZM289 89C307 89 324 92 341 99C357 106 371 116 384 129C397 142 407 158 414 177C421 196 425 219 425 244C425 269 421 292 414 311C407 330 397 346 384 359C371 372 357 381 341 388C324 394 307 397 289 397C271 397 254 394 238 388C221 381 207 372 195 359C182 346 172 330 165 311C157 292 153 269 153 244C153 219 157 196 165 177C172 158 182 142 195 129C207 116 221 106 238 99C254 92 271 89 289 89ZM289 502C326 502 359 496 390 483C421 470 447 452 470 429C493 406 510 378 523 347C536 316 542 281 542 244C542 207 536 172 523 141C510 109 493 82 470 59C447 36 421 18 390 5C359 -9 326 -15 289 -15C253 -15 220 -9 189 5C158 18 131 36 109 59C86 82 69 109 56 141C43 172 37 207 37 244C37 281 43 316 56 347C69 378 86 406 109 429C131 452 158 470 189 483C220 496 253 502 289 502Z"/>
<glyph unicode="&#xf7;" horiz-adv-x="578" d="M215 111C215 130 222 147 237 161C251 175 268 182 287 182C307 182 324 175 338 161C352 147 359 130 359 111C359 92 352 75 338 61C324 46 307 39 287 39C268 39 251 46 237 61C222 75 215 92 215 111ZM215 472C215 491 222 508 237 523C251 537 268 544 287 544C307 544 324 537 338 523C352 508 359 491 359 472C359 453 352 436 338 422C324 407 307 400 287 400C268 400 251 407 237 422C222 436 215 453 215 472ZM52 341L526 341L526 242L52 242L52 341Z"/>
<glyph unicode="&#xf8;" horiz-adv-x="579" d="M289 502C313 502 336 499 358 494C379 488 399 480 418 469L470 534L532 483L480 418C499 395 515 369 526 340C537 310 542 278 542 244C542 207 536 172 523 141C510 109 493 82 470 59C447 36 421 18 390 5C359 -9 326 -15 289 -15C264 -15 241 -12 220 -7C199 -1 180 7 163 17L113 -46L50 5L100 68C80 91 65 117 54 147C43 176 37 209 37 244C37 281 43 316 56 347C69 378 86 406 109 429C131 452 158 470 189 483C220 496 253 502 289 502ZM153 244C153 211 159 183 172 159L350 383C330 392 310 397 289 397C271 397 254 394 238 388C221 381 207 372 195 359C182 346 172 330 165 311C157 292 153 269 153 244ZM289 89C307 89 324 92 341 99C357 106 371 116 384 129C397 142 407 158 414 177C421 196 425 219 425 244C425 260 423 275 420 289C417 302 412 315 407 326L230 102C247 93 267 89 289 89Z"/>
<glyph unicode="&#xf9;" horiz-adv-x="577" d="M392 54C380 32 361 15 336 4C310 -8 283 -14 254 -14C225 -14 199 -9 176 1C153 11 134 25 119 43C103 60 91 81 83 104C74 127 70 153 70 180L70 487L186 487L186 201C186 186 188 171 192 158C195 145 201 133 209 123C217 113 227 105 240 99C252 93 267 90 284 90C318 90 344 100 361 121C378 141 386 167 386 199L386 487L502 487L502 89C502 69 503 52 504 37C505 22 506 9 507 0L396 0C395 5 394 13 393 24C392 34 392 44 392 54ZM125 696L264 696L352 548L257 548L125 696Z"/>
<glyph unicode="&#xfa;" horiz-adv-x="577" d="M304 548L209 548L298 696L435 696L304 548ZM392 54C380 32 361 15 336 4C310 -8 283 -14 254 -14C225 -14 199 -9 176 1C153 11 134 25 119 43C103 60 91 81 83 104C74 127 70 153 70 180L70 487L186 487L186 201C186 186 188 171 192 158C195 145 201 133 209 123C217 113 227 105 240 99C252 93 267 90 284 90C318 90 344 100 361 121C378 141 386 167 386 199L386 487L502 487L502 89C502 69 503 52 504 37C505 22 506 9 507 0L396 0C395 5 394 13 393 24C392 34 392 44 392 54Z"/>
<glyph unicode="&#xfb;" horiz-adv-x="577" d="M119 549L226 692L347 692L455 549L356 549L286 626L216 549L119 549ZM392 54C380 32 361 15 336 4C310 -8 283 -14 254 -14C225 -14 199 -9 176 1C153 11 134 25 119 43C103 60 91 81 83 104C74 127 70 153 70 180L70 487L186 487L186 201C186 186 188 171 192 158C195 145 201 133 209 123C217 113 227 105 240 99C252 93 267 90 284 90C318 90 344 100 361 121C378 141 386 167 386 199L386 487L502 487L502 89C502 69 503 52 504 37C505 22 506 9 507 0L396 0C395 5 394 13 393 24C392 34 392 44 392 54Z"/>
<glyph unicode="&#xfc;" horiz-adv-x="577" d="M122 625C122 643 128 658 141 671C153 684 168 690 186 690C205 690 220 684 233 671C246 658 252 643 252 625C252 606 246 591 233 579C220 566 205 560 186 560C168 560 153 566 141 579C128 591 122 606 122 625ZM322 625C322 643 328 658 341 671C353 684 368 690 386 690C404 690 419 684 432 671C445 658 451 643 451 625C451 606 445 591 432 579C419 566 404 560 386 560C368 560 353 566 341 579C328 591 322 606 322 625ZM392 54C380 32 361 15 336 4C310 -8 283 -14 254 -14C225 -14 199 -9 176 1C153 11 134 25 119 43C103 60 91 81 83 104C74 127 70 153 70 180L70 487L186 487L186 201C186 186 188 171 192 158C195 145 201 133 209 123C217 113 227 105 240 99C252 93 267 90 284 90C318 90 344 100 361 121C378 141 386 167 386 199L386 487L502 487L502 89C502 69 503 52 504 37C505 22 506 9 507 0L396 0C395 5 394 13 393 24C392 34 392 44 392 54Z"/>
<glyph unicode="&#xfd;" horiz-adv-x="543" d="M99 -197L216 58L8 487L139 487L279 179L410 487L533 487L223 -197L99 -197ZM300 548L205 548L294 696L431 696L300 548Z"/>
</font>
</defs>
</svg>
